<svg width="324" height="98" viewBox="0 0 324 98" fill="none" xmlns="http://www.w3.org/2000/svg">
<path fill-rule="evenodd" clip-rule="evenodd" d="M36.7769 1.1184L37.1964 20.4108H36.4972C36.3574 19.572 36.0777 18.873 35.9379 18.4536C35.0988 15.7974 34.5395 13.7004 34.12 12.3024C33.281 9.92582 32.1623 7.68902 30.6241 5.59201C29.5054 4.05421 28.2469 2.93581 26.9883 2.37661C25.7298 1.6776 24.3315 1.2582 22.7933 1.2582C20.4161 1.2582 18.3185 1.9572 16.6405 3.35521C15.1023 4.61341 13.7039 6.43081 12.4454 8.66762C11.1869 10.9044 10.0682 13.5606 9.22918 16.4964C8.11049 20.6904 7.55114 25.3039 7.55114 30.6163C7.55114 35.0899 7.97065 39.1441 8.80967 42.7789C9.64868 46.1341 10.7674 49.2097 12.3056 51.5863C15.1023 56.0599 19.0177 58.4365 23.6323 58.4365C26.0095 58.4365 28.107 57.8773 29.9249 56.7589C31.8826 55.6405 33.281 54.1027 34.3997 51.8659C35.6582 49.4893 36.4972 46.2739 37.0565 42.3595L37.7557 42.4993C37.3362 46.9729 36.4972 50.6077 35.0988 53.1241C33.8403 55.7803 32.0224 57.5977 29.6452 58.9957C27.268 60.3937 24.6111 61.0927 21.5347 61.0927C18.5982 61.0927 15.9413 60.5335 13.2844 59.2753C9.08934 57.3181 5.87311 54.1027 3.4959 49.0699C1.11869 44.0371 0 38.5849 0 31.8745C0 26.7019 0.69918 21.8088 2.09754 17.3352C3.35606 12.8616 5.31377 9.36662 7.69098 6.71041C9.64868 4.75321 11.8861 3.07561 14.4031 1.8174C17.06 0.559201 19.8567 0 22.5136 0C25.0306 0 27.6875 0.559201 30.4842 1.9572L33.0013 3.07561C33.5606 3.35521 33.8403 3.49501 34.2598 3.49501C34.8192 3.49501 35.0988 3.21541 35.5183 2.65621C35.6582 2.3766 35.9378 1.9572 36.0777 1.2582H36.7769V1.1184Z" fill="white"/>
<path fill-rule="evenodd" clip-rule="evenodd" d="M64.8839 34.6705L58.5913 12.8616V6.99002L60.2693 1.39801H61.9473L75.5114 46.4137C76.4903 49.7689 77.3293 52.1455 77.8886 53.6833C78.448 55.0813 79.1471 56.1997 79.8463 57.0385C80.4057 57.5977 80.965 57.8773 81.5244 58.1569C82.2235 58.4365 83.2024 58.7161 84.4609 58.8559V59.8345H64.0449V58.7161C65.8627 58.5763 67.1213 58.1569 67.8204 57.4579C69.079 56.3395 69.7781 54.8017 69.7781 52.8445C69.7781 51.5863 69.4985 50.0485 68.9391 48.0913L68.3798 46.2739L65.4432 36.3481H58.5913V34.6705H64.8839ZM58.5913 12.8616L58.4514 12.3024L52.2986 34.5307H58.5913V36.3481H51.7393L50.0613 42.2197L49.3621 44.7361C48.3832 47.9515 47.9637 50.3281 47.9637 52.1455C47.9637 53.2639 48.1036 54.1027 48.5231 55.2211C48.8027 56.0599 49.3621 56.8987 49.7816 57.4579C50.6206 58.1569 51.7393 58.7161 52.858 58.7161V59.6947H39.0142V58.7161C39.9931 58.7161 40.9719 58.2967 41.8109 57.5977C42.65 57.0385 43.489 55.9201 44.1882 54.5221C44.8873 53.2639 45.4467 51.8659 46.1459 50.0485C46.845 48.2311 47.6841 45.4351 48.6629 41.9401L58.5913 6.99002V12.8616Z" fill="white"/>
<path fill-rule="evenodd" clip-rule="evenodd" d="M102.08 2.65621C100.822 2.65621 99.4234 2.79601 97.8852 2.79601C94.669 2.93581 92.2918 3.63481 90.7536 4.47362C89.2154 5.31242 87.9569 6.85022 86.978 9.08703C85.9992 11.184 85.3 13.8402 84.7407 17.3352L84.0415 17.1954L84.6008 1.39801H126.552L127.111 17.1954L126.412 17.3352C125.852 13.281 125.013 10.3452 123.755 8.24822C122.496 6.29102 120.818 4.75322 118.581 3.91442C116.623 3.07561 113.407 2.65621 108.792 2.65621V46.2739C108.792 49.2097 108.932 51.4465 109.072 52.8445C109.212 54.2425 109.771 55.5007 110.331 56.3395C110.89 57.1783 111.589 57.7375 112.288 58.1569C112.988 58.4365 113.966 58.7161 115.085 58.7161V59.6947H95.508V58.7161C96.7666 58.7161 97.7454 58.4365 98.4446 58.1569C99.2836 57.7375 99.8429 57.1783 100.402 56.3395C100.962 55.5007 101.521 54.2425 101.661 52.8445C101.94 51.4465 102.08 49.3495 102.08 46.2739V2.65621Z" fill="white"/>
<path fill-rule="evenodd" clip-rule="evenodd" d="M162.35 1.39801L162.909 15.5178L162.21 15.6576C161.93 13.281 161.511 11.184 160.951 9.78603C160.392 8.10842 159.413 6.71042 158.294 5.59202C157.316 4.61342 156.057 3.91442 154.798 3.49501C153.54 3.07561 151.722 2.93581 149.625 2.93581H142.493V28.6591H144.451C146.269 28.6591 147.807 28.5193 148.646 28.0999C149.625 27.8203 150.324 27.2611 151.023 26.2825C151.582 25.4437 152.002 24.4651 152.281 23.3467C152.561 22.2283 152.841 20.5506 152.981 18.4536H153.68L153.54 41.3809H152.841C152.701 39.1441 152.281 37.4665 152.002 36.0685C151.582 34.8103 151.163 33.5521 150.464 32.7133C149.764 31.8745 148.925 31.0357 147.947 30.7561C147.108 30.3367 145.709 30.1969 144.171 30.1969H142.353V39.9829C142.353 43.8973 142.493 46.6933 142.493 48.3709C142.633 50.1883 143.052 51.7261 143.332 52.8445C144.031 54.8017 145.01 56.3395 146.548 57.3181C147.947 58.1569 149.904 58.7161 152.142 58.7161C154.659 58.7161 156.756 58.2967 158.434 57.4579C160.112 56.6191 161.511 55.2211 162.489 53.4037C163.189 52.1455 163.748 50.7475 164.307 49.2097C164.867 47.6719 165.146 45.5749 165.566 43.0585L166.265 43.1983L165.846 60.1141H128.929V58.7161C130.187 58.7161 131.026 58.4365 131.726 58.1569C132.565 57.7375 133.124 57.1783 133.683 56.3395C134.243 55.5007 134.802 54.2425 134.942 52.8445C135.082 51.4465 135.361 49.2097 135.361 46.2739V14.9586C135.361 12.0228 135.221 9.78603 134.942 8.38802C134.802 6.99002 134.243 5.73182 133.683 4.89302C133.124 4.05422 132.425 3.49501 131.726 3.07561C130.887 2.79601 130.048 2.51641 128.789 2.51641V1.39801H162.35Z" fill="white"/>
<path fill-rule="evenodd" clip-rule="evenodd" d="M188.359 29.7775C189.618 29.2183 190.736 28.5193 191.715 27.1213C193.813 24.3253 194.931 20.8302 194.931 16.4964C194.931 14.2596 194.652 12.0228 194.092 10.2054C193.393 8.24822 192.554 6.57062 191.435 5.31242C190.596 4.47362 189.618 3.63481 188.499 3.35521V1.39801C191.715 1.53781 194.232 2.23681 196.05 3.21541C198.148 4.47362 199.686 6.15122 200.944 8.38802C202.063 10.7646 202.622 13.281 202.622 16.3566C202.622 20.8302 201.364 24.3253 198.987 26.9815C198.287 27.8203 197.309 28.3795 196.609 28.9387C195.77 29.4979 194.512 29.7775 192.974 30.3367C194.232 31.0357 195.071 31.7347 195.631 32.5735C196.19 33.1327 196.47 33.9715 196.889 34.9501C197.309 35.7889 197.868 37.3267 198.707 39.7033C200.525 44.8759 201.923 48.6505 202.902 51.0271C203.741 53.4037 204.58 55.2211 205.279 56.1997C205.839 57.0385 206.398 57.7375 206.817 58.1569C207.377 58.4365 208.076 58.7161 208.775 58.7161V59.6947H198.567C198.008 58.0171 197.728 57.1783 197.588 56.6191L195.491 49.9087C194.232 45.7147 192.834 42.2197 191.575 39.1441C190.596 36.7675 189.618 34.9501 188.779 33.8317V29.7775H188.359ZM181.787 30.3367H183.045C185.423 30.3367 187.24 30.1969 188.359 29.7775V33.9715C188.079 33.5521 187.8 33.1327 187.52 32.8531C186.961 32.2939 186.262 32.0143 185.702 31.5949C185.003 31.4551 184.164 31.3153 183.325 31.3153H181.787V46.2739C181.787 49.2097 181.927 51.4465 182.066 52.8445C182.346 54.2425 182.766 55.5007 183.465 56.3395C184.024 57.1783 184.723 57.7375 185.423 58.0171C186.122 58.4365 187.101 58.7161 188.359 58.7161V59.6947H168.502V58.7161C169.761 58.7161 170.6 58.4365 171.299 58.0171C172.138 57.7375 172.697 57.1783 173.257 56.3395C173.816 55.5007 174.375 54.2425 174.515 52.8445C174.655 51.4465 174.795 49.3495 174.795 46.2739V14.9586C174.795 11.883 174.655 9.78603 174.515 8.38802C174.375 6.99002 173.816 5.73182 173.257 4.89302C172.697 4.05422 171.998 3.49501 171.299 3.07561C170.6 2.79601 169.621 2.51641 168.502 2.51641V1.39801H183.465C185.982 1.39801 187.66 1.39801 188.359 1.39801V3.35521H188.219C186.961 2.93581 185.283 2.79601 183.045 2.79601H181.787V30.3367Z" fill="white"/>
<path fill-rule="evenodd" clip-rule="evenodd" d="M229.611 1.39801V2.37661C228.352 2.51641 227.513 2.65621 226.674 2.93581C225.975 3.35521 225.276 3.91442 224.716 4.75322C223.877 6.01142 223.458 7.40942 223.178 9.64623C223.038 11.184 223.038 12.8616 223.038 14.8188V46.2739C223.038 48.6505 223.178 50.6077 223.178 51.8659C223.318 53.2639 223.738 54.3823 224.017 55.2211C224.577 56.3395 225.276 57.1783 225.975 57.7375C226.814 58.2967 227.933 58.5763 229.331 58.7161V59.6947H209.754V58.7161C211.013 58.7161 211.852 58.4365 212.691 58.0171C213.39 57.7375 213.949 57.1783 214.648 56.3395C215.208 55.5007 215.767 54.2425 215.907 52.8445C216.047 51.4465 216.326 49.3495 216.326 46.2739V14.9586C216.326 11.883 216.186 9.78603 215.907 8.38802C215.627 6.99002 215.208 5.73182 214.648 4.89302C214.089 4.05422 213.39 3.49501 212.691 3.07561C211.991 2.79601 211.013 2.51641 209.894 2.51641V1.39801H229.611Z" fill="white"/>
<path fill-rule="evenodd" clip-rule="evenodd" d="M240.378 9.22683V46.4137C240.378 49.4893 240.518 51.5863 240.798 52.9843C240.937 54.3823 241.497 55.6405 242.056 56.4793C242.615 57.3181 243.315 57.8773 244.014 58.2967C244.713 58.5763 245.692 58.8559 246.811 58.8559V59.8345H232.547V58.7161C233.806 58.7161 234.645 58.4365 235.484 58.1569C236.183 57.7375 236.882 57.1783 237.442 56.3395C238.141 55.5007 238.56 54.2425 238.7 52.8445C238.98 51.4465 239.12 49.2097 239.12 46.2739V14.8188C239.12 11.883 238.98 9.78603 238.7 8.38802C238.56 6.99002 238.141 5.73182 237.442 4.89302C236.882 4.05422 236.183 3.49501 235.484 3.07561C234.785 2.79601 233.806 2.51641 232.547 2.51641V1.39801H244.573L269.883 45.7147V14.9586C269.883 11.883 269.744 9.78603 269.464 8.38802C269.324 6.99002 268.905 5.73182 268.205 4.89302C267.646 4.05422 266.947 3.49501 266.248 3.07561C265.409 2.79601 264.57 2.51641 263.311 2.51641V1.39801H277.574V2.37661C275.617 2.37661 273.939 3.21541 272.68 4.75322C272.121 5.59202 271.562 6.85022 271.422 8.24822C271.282 9.64623 271.002 11.7432 271.002 14.679V59.6947H269.604L240.378 9.22683Z" fill="white"/>
<path fill-rule="evenodd" clip-rule="evenodd" d="M304.423 34.6705L297.991 12.8616V6.99002L299.669 1.39801H301.486L314.911 46.4137C315.89 49.7689 316.729 52.1455 317.288 53.6833C317.847 55.0813 318.546 56.1997 319.246 57.0385C319.805 57.5977 320.224 57.8773 320.924 58.1569C321.483 58.4365 322.602 58.7161 323.86 58.8559V59.8345H303.444V58.7161C305.262 58.5763 306.521 58.1569 307.22 57.4579C308.478 56.3395 309.177 54.8017 309.177 52.8445C309.177 51.5863 308.898 50.0485 308.338 48.0913L307.779 46.2739L304.843 36.2083H297.851V34.5307H304.423V34.6705ZM297.991 12.8616L297.851 12.4422L291.558 34.6705H297.851V36.3481H290.999L289.321 42.2197L288.482 44.7361C287.643 47.9515 287.083 50.3281 287.083 52.1455C287.083 53.2639 287.223 54.1027 287.643 55.2211C288.062 56.0599 288.482 56.8987 289.041 57.4579C289.88 58.1569 290.859 58.7161 292.117 58.7161V59.6947H278.274V58.7161C279.392 58.7161 280.371 58.2967 281.21 57.5977C282.049 57.0385 282.888 55.9201 283.587 54.5221C284.147 53.2639 284.846 51.8659 285.545 50.0485C286.104 48.2311 287.083 45.4351 288.062 41.9401L297.851 7.12982V12.8616H297.991Z" fill="white"/>
<path fill-rule="evenodd" clip-rule="evenodd" d="M235.484 96.6021C234.225 97.1613 231.429 97.8603 228.352 97.8603C224.856 97.8603 222.06 97.0215 219.682 94.7847C217.725 92.8275 216.466 89.7518 216.466 86.2568C216.606 79.2668 221.36 74.234 229.051 74.234C231.708 74.234 233.806 74.7932 234.785 75.2126L234.085 77.729C232.827 77.1698 231.289 76.7504 228.912 76.7504C223.318 76.7504 219.682 80.2454 219.682 85.9772C219.682 91.8489 223.178 95.3439 228.492 95.3439C230.45 95.3439 231.848 95.0643 232.547 94.7847V87.7946H227.793V85.418H235.484V96.6021Z" fill="white"/>
<path fill-rule="evenodd" clip-rule="evenodd" d="M247.23 85.2783C249.747 84.9987 251.425 83.3211 251.425 80.9445C251.425 78.4281 249.747 77.03 247.23 76.7504V74.3738C249.607 74.5136 251.425 75.0728 252.544 76.1912C253.663 77.3096 254.362 78.8475 254.362 80.6649C254.362 83.7405 252.404 85.6977 249.887 86.5365V86.6763C251.705 87.2355 252.823 88.9131 253.243 91.2897C254.082 94.5051 254.502 96.7419 255.061 97.5807H251.984C251.705 96.8817 251.145 94.9245 250.446 91.9887C249.887 89.3325 248.908 88.0743 247.09 87.6549V85.2783H247.23ZM243.035 85.4181H246.111C246.531 85.4181 246.95 85.4181 247.23 85.2783V87.7947C246.811 87.6549 246.391 87.6549 245.972 87.6549H243.175V97.5807H240.098V74.7932C241.637 74.5136 243.874 74.3738 245.832 74.3738C246.391 74.3738 246.811 74.3738 247.23 74.3738V76.7504C246.811 76.7504 246.391 76.6106 245.972 76.6106C244.573 76.6106 243.594 76.7504 243.035 76.8902V85.4181Z" fill="white"/>
<path fill-rule="evenodd" clip-rule="evenodd" d="M267.786 95.6234C272.54 95.6234 275.197 91.1498 275.197 85.9772C275.197 81.3638 272.82 76.6106 267.786 76.6106H267.646V74.0942H267.786C274.079 74.0942 278.134 78.9872 278.134 85.8374C278.134 93.6662 273.379 97.8602 267.506 98V95.6234H267.786ZM260.514 86.2568C260.514 91.1498 263.171 95.6234 267.926 95.6234V98H267.786C261.773 98 257.438 93.2468 257.438 86.2568C257.438 78.9872 261.913 74.234 268.066 74.0942V76.6106C262.892 76.6106 260.514 81.0842 260.514 86.2568Z" fill="white"/>
<path fill-rule="evenodd" clip-rule="evenodd" d="M285.265 74.5136V88.2141C285.265 93.3867 287.643 95.6235 290.719 95.6235C294.075 95.6235 296.313 93.2469 296.313 88.2141V74.5136H299.389V87.9345C299.389 95.0643 295.613 98.0001 290.579 98.0001C285.825 98.0001 282.189 95.3439 282.189 88.0743V74.3738H285.265V74.5136Z" fill="white"/>
<path fill-rule="evenodd" clip-rule="evenodd" d="M311.555 86.1171C314.211 85.5579 315.75 84.0201 315.75 81.2241C315.75 78.5678 314.072 77.03 311.555 76.7504V74.3738C313.932 74.5136 315.47 75.2126 316.729 76.331C317.987 77.4494 318.686 78.9872 318.686 81.2241C318.686 83.4609 318.127 84.9987 316.868 86.1171C315.61 87.3753 313.792 88.2141 311.555 88.4937V86.1171ZM307.499 85.9773C308.199 86.1171 309.038 86.1171 310.016 86.1171C310.576 86.1171 311.135 86.1171 311.694 85.9773V88.3539C311.135 88.4937 310.576 88.4937 310.016 88.4937C309.177 88.4937 308.338 88.4937 307.639 88.3539V97.5807H304.563V74.7932C306.101 74.6534 307.919 74.3738 310.296 74.3738C310.855 74.3738 311.275 74.3738 311.694 74.3738V76.7504C311.275 76.6106 310.855 76.6106 310.436 76.6106C309.177 76.6106 308.059 76.7504 307.639 76.7504V85.9773H307.499Z" fill="white"/>
</svg>
