<svg width="76" height="83" viewBox="0 0 76 83" fill="none" xmlns="http://www.w3.org/2000/svg">
<path d="M75.38 27.2926L38.38 0.292565C38.1222 0.102524 37.8103 0 37.49 0C37.1697 0 36.8579 0.102524 36.6 0.292565L0.600034 27.2926C0.41374 27.4323 0.262534 27.6135 0.158393 27.8217C0.0542513 28.03 3.33366e-05 28.2597 3.33366e-05 28.4926V80.4926C-0.00128551 80.6904 0.0365396 80.8865 0.111331 81.0697C0.186122 81.2528 0.296402 81.4193 0.435822 81.5597C0.575241 81.7 0.741046 81.8114 0.923689 81.8874C1.10633 81.9634 1.30221 82.0026 1.50003 82.0026H74.5C74.8979 82.0026 75.2794 81.8445 75.5607 81.5632C75.842 81.2819 76 80.9004 76 80.5026V28.5026C75.9993 28.2663 75.9427 28.0336 75.835 27.8233C75.7272 27.613 75.5714 27.4312 75.38 27.2926ZM62 60.0026H46V45.0026H62V60.0026ZM43 79.0026H28V63.0026H43V79.0026ZM46 63.0026H62V79.0026H46V63.0026ZM62 42.0026H44.5C44.1022 42.0026 43.7207 42.1606 43.4394 42.4419C43.1581 42.7232 43 43.1047 43 43.5026V60.0026H26.5C26.1022 60.0026 25.7207 60.1606 25.4394 60.4419C25.1581 60.7232 25 61.1047 25 61.5026V79.0026H15V35.0026H62V42.0026ZM73 79.0026H65V33.5026C65 33.1047 64.842 32.7232 64.5607 32.4419C64.2794 32.1606 63.8979 32.0026 63.5 32.0026H13.5C13.1022 32.0026 12.7207 32.1606 12.4394 32.4419C12.1581 32.7232 12 33.1047 12 33.5026V79.0026H3.00003V29.2526L37.51 3.37256L73 29.2626V79.0026Z" fill="#F9C51A"/>
</svg>
