<svg width="85" height="92" viewBox="0 0 85 92" fill="none" xmlns="http://www.w3.org/2000/svg">
<path d="M30.446 41.11C34.559 41.11 38.508 42.006 42.185 43.774C42.933 44.132 43.829 43.819 44.187 43.073C44.546 42.326 44.232 41.429 43.486 41.071C39.4 39.106 35.013 38.11 30.446 38.11C13.832 38.11 0.315002 51.627 0.315002 68.24C0.315002 69.068 0.987002 69.74 1.815 69.74H27.824C28.652 69.74 29.324 69.068 29.324 68.24C29.324 67.412 28.652 66.74 27.824 66.74H3.356C4.137 52.475 15.989 41.11 30.446 41.11Z" fill="#F9C51A"/>
<path d="M29.944 35.507C39.565 35.507 47.393 27.68 47.393 18.06C47.393 8.44099 39.565 0.61499 29.944 0.61499C20.326 0.61499 12.502 8.44099 12.502 18.06C12.501 27.68 20.326 35.507 29.944 35.507ZM29.944 3.61499C37.912 3.61499 44.393 10.095 44.393 18.06C44.393 26.026 37.912 32.507 29.944 32.507C21.98 32.507 15.502 26.026 15.502 18.06C15.501 10.095 21.98 3.61499 29.944 3.61499Z" fill="#F9C51A"/>
<path d="M79.179 49.74H43.469C40.632 49.74 38.323 52.049 38.323 54.886V76.596C38.323 79.433 40.631 81.741 43.468 81.741H47.323V90.408C47.323 91.003 47.674 91.541 48.218 91.78C48.412 91.866 48.618 91.908 48.823 91.908C49.19 91.908 49.552 91.773 49.835 91.515L60.534 81.741H79.18C82.016 81.741 84.324 79.433 84.324 76.597V54.885C84.324 52.047 82.016 49.74 79.179 49.74ZM81.324 76.596C81.324 77.778 80.362 78.74 79.18 78.74H59.952C59.578 78.74 59.217 78.88 58.94 79.133L50.323 87.005V80.24C50.323 79.412 49.651 78.74 48.823 78.74H43.468C42.285 78.74 41.323 77.778 41.323 76.595V54.885C41.323 53.702 42.286 52.739 43.469 52.739H79.179C80.362 52.739 81.324 53.701 81.324 54.884V76.596Z" fill="#F9C51A"/>
<path d="M52.324 62.847C51.219 62.847 50.324 63.743 50.324 64.847C50.324 65.952 51.219 66.847 52.324 66.847C53.428 66.847 54.324 65.951 54.324 64.847C54.323 63.743 53.428 62.847 52.324 62.847Z" fill="#F9C51A"/>
<path d="M62.324 62.847C61.219 62.847 60.324 63.743 60.324 64.847C60.324 65.952 61.219 66.847 62.324 66.847C63.428 66.847 64.324 65.951 64.324 64.847C64.323 63.743 63.428 62.847 62.324 62.847Z" fill="#F9C51A"/>
<path d="M71.324 62.847C70.219 62.847 69.324 63.743 69.324 64.847C69.324 65.952 70.219 66.847 71.324 66.847C72.428 66.847 73.324 65.951 73.324 64.847C73.323 63.743 72.428 62.847 71.324 62.847Z" fill="#F9C51A"/>
</svg>
