<svg width="89" height="85" viewBox="0 0 89 85" fill="none" xmlns="http://www.w3.org/2000/svg">
<path d="M9.76343 65.2299C9.76343 70.7388 14.2345 75.2219 19.7311 75.2219C25.2276 75.2219 29.6987 70.7388 29.6987 65.2299C29.6987 59.7209 25.2276 55.2378 19.7311 55.2378C14.2345 55.2378 9.76343 59.7198 9.76343 65.2299ZM26.4224 65.2299C26.4224 68.928 23.4202 71.9376 19.7311 71.9376C16.0419 71.9376 13.0397 68.928 13.0397 65.2299C13.0397 61.5317 16.0419 58.5221 19.7311 58.5221C23.4202 58.5221 26.4224 61.5317 26.4224 65.2299Z" fill="#F9C51A"/>
<path d="M88.3939 27.9154C87.719 27.3122 86.6848 27.3702 86.0808 28.0468L62.2871 54.7626L50.0381 42.4836C49.3981 41.8421 48.3617 41.8421 47.7217 42.4836C47.0818 43.1251 47.0818 44.1641 47.7217 44.8056L61.1972 58.313C61.5052 58.6217 61.9213 58.7936 62.3559 58.7936C62.3712 58.7936 62.3865 58.7936 62.4018 58.7925C62.8518 58.7793 63.2777 58.5823 63.578 58.2451L88.526 30.233C89.1278 29.5576 89.0688 28.5186 88.3939 27.9154Z" fill="#F9C51A"/>
<path d="M62.9206 62.9002C62.0152 62.9002 61.2824 63.6359 61.2824 64.5424V80.8842H3.27632V4.24944H61.2824V38.6552C61.2824 39.5617 62.0152 40.2974 62.9206 40.2974C63.8259 40.2974 64.5587 39.5617 64.5587 38.6552V2.60726C64.5587 1.70078 63.8259 0.965088 62.9206 0.965088H1.63816C0.732803 0.965088 0 1.70078 0 2.60726V82.5264C0 83.4329 0.732803 84.1686 1.63816 84.1686H62.9206C63.8259 84.1686 64.5587 83.4329 64.5587 82.5264V64.5424C64.5587 63.6359 63.8259 62.9002 62.9206 62.9002Z" fill="#F9C51A"/>
<path d="M43.7716 23.1071C44.6769 23.1071 45.4097 22.3714 45.4097 21.4649C45.4097 20.5584 44.6769 19.8228 43.7716 19.8228H10.8599C9.95454 19.8228 9.22174 20.5584 9.22174 21.4649C9.22174 22.3714 9.95454 23.1071 10.8599 23.1071H43.7716Z" fill="#F9C51A"/>
<path d="M45.8127 36.0737C45.8127 35.1672 45.0799 34.4315 44.1746 34.4315H11.2716C10.3663 34.4315 9.63348 35.1672 9.63348 36.0737C9.63348 36.9801 10.3663 37.7158 11.2716 37.7158H44.1746C45.0799 37.7158 45.8127 36.9801 45.8127 36.0737Z" fill="#F9C51A"/>
</svg>
