<svg width="89" height="89" viewBox="0 0 89 89" fill="none" xmlns="http://www.w3.org/2000/svg">
<path d="M83.7055 44.0229H76.8243V32.4101C76.8243 31.6749 76.2283 31.0798 75.494 31.0798H53.9424V19.491C53.9424 18.7557 53.3464 18.1606 52.6121 18.1606H4.98239C4.24718 18.1606 3.6521 18.7557 3.6521 19.491V63.1121C3.6521 63.8464 4.24718 64.4424 4.98239 64.4424H16.1018C16.563 67.8719 19.5003 70.5273 23.0531 70.5273C26.6058 70.5273 29.5431 67.8719 30.0043 64.4424H52.6121H61.2023C61.6634 67.8719 64.6025 70.5273 68.1588 70.5273C71.7151 70.5273 74.6542 67.8719 75.1162 64.4424H83.7063C84.4407 64.4424 85.0366 63.8464 85.0366 63.1121V45.3532C85.0357 44.618 84.4398 44.0229 83.7055 44.0229ZM23.0531 67.8666C20.6488 67.8666 18.6924 65.9093 18.6924 63.5032C18.6924 61.0971 20.6488 59.1397 23.0531 59.1397C25.4573 59.1397 27.4138 61.0971 27.4138 63.5032C27.4138 65.9093 25.4582 67.8666 23.0531 67.8666ZM23.0531 56.4791C19.7761 56.4791 17.0251 58.7398 16.2544 61.7818H6.31268V20.8213H51.2818V32.4101V45.3532V61.7809H29.8526C29.0819 58.7398 26.33 56.4791 23.0531 56.4791ZM68.1588 67.8666C65.751 67.8666 63.7928 65.9093 63.7928 63.5032C63.7928 61.0971 65.751 59.1397 68.1588 59.1397C70.5666 59.1397 72.5257 61.0971 72.5257 63.5032C72.5257 65.9093 70.5657 67.8666 68.1588 67.8666ZM82.3752 61.7809H74.9637C74.1921 58.7389 71.4384 56.4782 68.1588 56.4782C64.8792 56.4782 62.1255 58.7389 61.3548 61.7809H53.9433V45.3532V33.7404H74.1646V45.3532C74.1646 46.0876 74.7606 46.6835 75.4949 46.6835H82.376V61.7809H82.3752Z" fill="#F9C51A"/>
</svg>
