<svg width="86" height="85" viewBox="0 0 86 85" fill="none" xmlns="http://www.w3.org/2000/svg">
<path d="M84.0454 0.406128H38.4394C37.921 0.406128 37.4239 0.585959 37.0573 0.90606C36.6908 1.22616 36.4848 1.66031 36.4848 2.113V9.50947H20.197C19.6786 9.50947 19.1814 9.6893 18.8149 10.0094C18.4483 10.3295 18.2424 10.7637 18.2424 11.2163V19.7507H1.95455C1.43617 19.7507 0.939022 19.9306 0.572474 20.2507C0.205926 20.5708 0 21.0049 0 21.4576V82.9052C0 83.3579 0.205926 83.792 0.572474 84.1121C0.939022 84.4322 1.43617 84.6121 1.95455 84.6121H47.5606C48.079 84.6121 48.5761 84.4322 48.9427 84.1121C49.3092 83.792 49.5151 83.3579 49.5151 82.9052V74.3708H65.803C66.3214 74.3708 66.8186 74.191 67.1851 73.8709C67.5517 73.5508 67.7576 73.1166 67.7576 72.6639V65.2675H84.0454C84.5638 65.2675 85.061 65.0876 85.4275 64.7675C85.7941 64.4474 86 64.0133 86 63.5606V2.113C86 1.66031 85.7941 1.22616 85.4275 0.90606C85.061 0.585959 84.5638 0.406128 84.0454 0.406128ZM45.6061 81.1983H3.90909V23.1645H45.6061V81.1983ZM63.8485 70.957H49.5151V21.4576C49.5151 21.0049 49.3092 20.5708 48.9427 20.2507C48.5761 19.9306 48.079 19.7507 47.5606 19.7507H22.1515V12.9232H63.8485V70.957ZM82.0909 61.8537H67.7576V11.2163C67.7576 10.7637 67.5517 10.3295 67.1851 10.0094C66.8186 9.6893 66.3214 9.50947 65.803 9.50947H40.3939V3.81988H82.0909V61.8537Z" fill="#F9C51A"/>
</svg>
