<svg width="19" height="21" viewBox="0 0 19 21" fill="none" xmlns="http://www.w3.org/2000/svg">
<path d="M17.6348 14.8098C17.4296 14.8098 17.2636 14.9759 17.2636 15.181V19.759H1.67354V15.181C1.67354 14.9759 1.50749 14.8098 1.30234 14.8098C1.0972 14.8098 0.931152 14.9759 0.931152 15.181V20.1302C0.931152 20.3354 1.0972 20.5014 1.30234 20.5014H17.6348C17.8399 20.5014 18.006 20.3354 18.006 20.1302V15.181C18.006 14.9761 17.8399 14.8098 17.6348 14.8098Z" fill="black"/>
<path d="M9.20667 16.186C9.27917 16.2585 9.3742 16.2946 9.46922 16.2946C9.56425 16.2946 9.65927 16.2585 9.73178 16.186L12.9488 12.969C13.0938 12.8242 13.0938 12.5889 12.9488 12.4441C12.8038 12.2991 12.5689 12.2991 12.4239 12.4441L9.84066 15.0274V1.07578C9.84066 0.870636 9.67462 0.70459 9.46947 0.70459C9.26433 0.70459 9.09828 0.870636 9.09828 1.07578V15.0274L6.51503 12.4441C6.37002 12.2991 6.13518 12.2991 5.99017 12.4441C5.84516 12.5889 5.84516 12.8242 5.99017 12.969L9.20667 16.186Z" fill="black"/>
</svg>
