<svg width="130" height="130" viewBox="0 0 130 130" fill="none" xmlns="http://www.w3.org/2000/svg">
<path d="M85.6826 45.5644L43.141 79.4275C42.2629 80.1268 42.1179 81.4062 42.8158 82.2844C43.2169 82.7885 43.8092 83.0514 44.4082 83.0514C44.8513 83.0514 45.2985 82.9078 45.6726 82.6096L88.2142 48.7465C89.0924 48.0472 89.2374 46.7679 88.5394 45.8897C87.8415 45.0115 86.5622 44.8651 85.6826 45.5644Z" fill="black"/>
<path d="M48.3207 58.4014C50.1502 59.7376 52.3077 60.4383 54.5316 60.4383C55.0764 60.4383 55.6266 60.3963 56.1755 60.3109C61.9297 59.4151 65.8843 54.005 64.9912 48.2507C64.0954 42.495 58.6826 38.5405 52.9311 39.4363C47.1755 40.3307 43.221 45.7408 44.1168 51.4951C44.5491 54.2828 46.0412 56.7372 48.3207 58.4014ZM53.5545 43.4532C53.8906 43.4003 54.2253 43.3746 54.556 43.3746C57.7015 43.3746 60.4742 45.6717 60.973 48.8755C61.5232 52.4153 59.0906 55.7438 55.5507 56.294C53.8323 56.561 52.1193 56.1436 50.7194 55.119C49.3181 54.0958 48.3993 52.5861 48.1336 50.8717C47.5834 47.3319 50.0147 44.0034 53.5545 43.4532Z" fill="black"/>
<path d="M76.9019 67.6559C71.0759 67.6559 66.3353 72.3951 66.3353 78.2199C66.3353 84.0447 71.0759 88.7826 76.9019 88.7826C82.728 88.7826 87.4672 84.0433 87.4672 78.2199C87.4686 72.3951 82.728 67.6559 76.9019 67.6559ZM76.9019 84.7169C73.3174 84.7169 70.401 81.8018 70.401 78.2199C70.401 74.6367 73.3174 71.7216 76.9019 71.7216C80.4865 71.7216 83.4016 74.6367 83.4016 78.2199C83.4029 81.8031 80.4865 84.7169 76.9019 84.7169Z" fill="black"/>
<path d="M117.643 52.8856C113.614 50.8785 109.449 48.8023 108.313 46.119C107.155 43.38 108.748 39.0216 110.289 34.8069C112.382 29.0824 114.547 23.1641 110.619 19.238C106.753 15.3715 101.021 16.701 95.4753 17.9885C91.5046 18.91 87.3983 19.8627 84.6065 18.6823C81.8879 17.5304 79.6654 14.0244 77.516 10.6336C74.4708 5.82935 71.0205 0.384033 65.1117 0.384033C59.1921 0.384033 55.8082 5.94996 52.8226 10.8613C50.7044 14.3456 48.513 17.9492 45.7958 19.0984C43.0081 20.2774 38.8544 19.2312 34.8362 18.2216C29.2486 16.8162 23.4713 15.3647 19.6009 19.238C15.6924 23.1438 17.6168 29.0959 19.4789 34.8529C20.8409 39.0623 22.2476 43.4153 21.0807 46.1745C19.9451 48.8647 15.9635 50.9219 12.1133 52.9127C6.78457 55.6679 0.745728 58.7904 0.745728 64.748C0.745728 70.6866 6.55012 73.9337 11.6715 76.7987C15.3401 78.8505 19.1333 80.9728 20.2771 83.6751C21.4494 86.4465 20.2215 90.706 19.0357 94.8246C17.4 100.5 15.7087 106.371 19.6009 110.261C23.6123 114.271 30.0428 110.933 36.2619 107.701C40.7815 105.353 45.9056 102.689 48.57 103.818C51.1706 104.918 52.9134 110.292 54.4516 115.032C56.6958 121.954 59.0187 129.112 65.1131 129.112C71.2143 129.112 73.4599 121.947 75.6309 115.017C77.1217 110.262 78.8116 104.871 81.4096 103.773C84.0739 102.647 89.2563 105.318 93.8274 107.676C100.113 110.919 106.611 114.271 110.62 110.262C114.551 106.332 112.398 100.496 110.316 94.8517C108.786 90.702 107.203 86.4113 108.359 83.6751C109.496 80.9877 113.647 78.8518 117.662 76.7865C123.469 73.7982 129.474 70.7096 129.474 64.748C129.47 58.7795 123.456 55.7831 117.643 52.8856ZM115.798 73.1721C111.14 75.5681 106.324 78.0468 104.612 82.0935C102.83 86.311 104.696 91.3687 106.5 96.2598C108.214 100.908 109.834 105.298 107.743 107.388C105.835 109.297 100.444 106.517 95.6895 104.065C90.0626 101.162 84.2447 98.1611 79.824 100.03C75.4927 101.861 73.5886 107.932 71.7496 113.805C70.0176 119.333 68.226 125.049 65.1117 125.049C61.9717 125.049 60.1137 119.32 58.3167 113.78C56.4221 107.939 54.4638 101.899 50.1529 100.076C49.1961 99.6709 48.1769 99.4933 47.1104 99.4933C43.2426 99.4933 38.7568 101.824 34.3863 104.094C29.6972 106.532 24.3793 109.294 22.4739 107.388C20.2785 105.193 21.5713 100.705 22.9415 95.9521C24.3238 91.1532 25.7535 86.1917 24.0202 82.0922C22.333 78.1064 17.9217 75.6386 13.6555 73.252C9.10741 70.7083 4.81138 68.3041 4.81138 64.7507C4.81138 61.2677 9.26462 58.9638 13.9808 56.5271C18.472 54.2043 23.1176 51.8028 24.8252 47.7602C26.5816 43.6077 24.9377 38.5229 23.3467 33.6048C21.7936 28.8018 20.3259 24.2632 22.4753 22.1165C24.7168 19.8722 29.1511 20.9876 33.8455 22.168C38.5129 23.343 43.3429 24.5573 47.3801 22.847C51.3048 21.1882 53.8431 17.0141 56.2974 12.9768C58.9618 8.59401 61.4784 4.45379 65.1117 4.45379C68.783 4.45379 71.3566 8.51541 74.0819 12.8142C76.566 16.7322 79.1328 20.7843 83.0236 22.4309C87.0337 24.1263 91.7932 23.0218 96.3955 21.9525C101.064 20.8697 105.474 19.8451 107.745 22.1165C109.839 24.209 108.204 28.6799 106.473 33.4137C104.662 38.3684 102.788 43.4912 104.572 47.7059C106.293 51.773 111.142 54.1907 115.832 56.5271C120.756 58.9814 125.407 61.2989 125.407 64.7507C125.404 68.2282 120.738 70.6297 115.798 73.1721Z" fill="black"/>
</svg>
