<svg width="1046" height="477" viewBox="0 0 1046 477" fill="none" xmlns="http://www.w3.org/2000/svg">
<path opacity="0.1" d="M1021.55 331.942L894.488 56.4096C880.161 30.4948 854.612 26.8277 802.984 20.4719C751.356 14.116 688.837 48.6219 661.362 65.8483C632.235 83.6341 539.864 108.793 403.389 67.1429C266.914 25.4928 97.1691 10.7998 32.7506 26.0062C-0.264825 37.7481 21.3216 72.3679 33.0493 85.5384C230.958 307.795 416.782 429.239 443.332 447.296C469.882 465.354 516.168 461.814 539.245 446.815L623.325 395.128C648.064 381.774 685.144 389.195 714.335 406.247C743.526 423.299 802.179 445.496 838.56 445.313L926.204 444.873C955.97 444.724 1007.5 431.235 1021.92 404.704C1036.34 378.172 1027.68 345.141 1021.55 331.942Z" stroke="#BEBEBE" stroke-width="30"/>
</svg>
