<svg width="529" height="70" viewBox="0 0 529 70" fill="none" xmlns="http://www.w3.org/2000/svg">
<path d="M9.18 22.252C7.98 22.252 6.9 22.06 5.94 21.676C4.98 21.268 4.152 20.728 3.456 20.056C2.784 19.36 2.256 18.544 1.872 17.608C1.512 16.672 1.332 15.652 1.332 14.548C1.332 13.372 1.536 12.304 1.944 11.344C2.352 10.36 2.916 9.52 3.636 8.824C4.356 8.128 5.208 7.588 6.192 7.204C7.176 6.82 8.244 6.628 9.396 6.628C10.548 6.628 11.604 6.82 12.564 7.204C13.524 7.564 14.352 8.08 15.048 8.752C15.744 9.424 16.284 10.228 16.668 11.164C17.052 12.076 17.244 13.084 17.244 14.188C17.244 15.22 17.064 16.228 16.704 17.212C16.368 18.172 15.852 19.024 15.156 19.768C14.484 20.512 13.644 21.112 12.636 21.568C11.652 22.024 10.5 22.252 9.18 22.252ZM8.964 7.816C8.1 7.864 7.332 8.08 6.66 8.464C6.012 8.824 5.46 9.304 5.004 9.904C4.572 10.48 4.236 11.14 3.996 11.884C3.78 12.628 3.672 13.384 3.672 14.152C3.672 15.04 3.804 15.904 4.068 16.744C4.356 17.56 4.752 18.292 5.256 18.94C5.784 19.588 6.408 20.104 7.128 20.488C7.848 20.872 8.652 21.064 9.54 21.064C10.428 21.064 11.208 20.872 11.88 20.488C12.576 20.104 13.152 19.612 13.608 19.012C14.064 18.388 14.4 17.692 14.616 16.924C14.856 16.156 14.976 15.388 14.976 14.62C14.976 13.828 14.856 13.036 14.616 12.244C14.376 11.428 14.004 10.696 13.5 10.048C12.996 9.376 12.36 8.836 11.592 8.428C10.848 8.02 9.972 7.816 8.964 7.816ZM36.3398 6.628C37.5158 6.628 38.5118 6.844 39.3278 7.276C40.1678 7.708 40.8518 8.284 41.3798 9.004C41.9078 9.724 42.2798 10.552 42.4958 11.488C42.7358 12.4 42.8558 13.348 42.8558 14.332C42.8558 15.292 42.7118 16.252 42.4238 17.212C42.1598 18.148 41.7398 18.988 41.1638 19.732C40.6118 20.476 39.9038 21.088 39.0398 21.568C38.1758 22.024 37.1558 22.252 35.9798 22.252C35.5238 22.252 35.0918 22.18 34.6838 22.036C34.2998 21.916 33.9398 21.772 33.6038 21.604C33.2198 21.412 32.8598 21.184 32.5238 20.92V27.58C32.5238 27.772 32.5478 27.976 32.5958 28.192C32.6438 28.432 32.7158 28.648 32.8118 28.84C32.9318 29.032 33.0518 29.2 33.1718 29.344C33.3158 29.488 33.4838 29.56 33.6758 29.56V29.92H29.0678V29.56C29.2598 29.56 29.4278 29.488 29.5718 29.344C29.7158 29.224 29.8358 29.056 29.9318 28.84C30.0278 28.648 30.0998 28.432 30.1478 28.192C30.1958 27.976 30.2198 27.772 30.2198 27.58V20.92C29.9798 21.16 29.5838 21.448 29.0318 21.784C28.5038 22.096 27.7598 22.252 26.7998 22.252C25.6238 22.252 24.6038 22.024 23.7398 21.568C22.8758 21.088 22.1558 20.476 21.5798 19.732C21.0038 18.964 20.5718 18.1 20.2838 17.14C20.0198 16.18 19.8878 15.196 19.8878 14.188C19.8878 13.228 20.0078 12.304 20.2478 11.416C20.4878 10.504 20.8598 9.7 21.3638 9.004C21.8918 8.284 22.5638 7.708 23.3798 7.276C24.2198 6.844 25.2278 6.628 26.4038 6.628C27.5558 6.628 28.4078 6.796 28.9598 7.132C29.5358 7.444 29.9558 7.732 30.2198 7.996V3.712C30.2198 3.544 30.1958 3.364 30.1478 3.172C30.0998 2.956 30.0278 2.752 29.9318 2.56C29.8358 2.368 29.7158 2.212 29.5718 2.092C29.4278 1.948 29.2598 1.876 29.0678 1.876V1.516H33.6758V1.876C33.5078 1.876 33.3518 1.948 33.2078 2.092C33.0638 2.212 32.9438 2.368 32.8478 2.56C32.7518 2.728 32.6678 2.92 32.5958 3.136C32.5478 3.352 32.5238 3.544 32.5238 3.712V7.96C32.7878 7.72 33.2078 7.444 33.7838 7.132C34.3598 6.796 35.2118 6.628 36.3398 6.628ZM27.0518 21.028C27.5078 21.028 27.9278 20.92 28.3118 20.704C28.6958 20.488 29.0318 20.212 29.3198 19.876C29.6078 19.54 29.8238 19.18 29.9678 18.796C30.1358 18.388 30.2198 18.004 30.2198 17.644V11.56C30.2198 11.032 30.1118 10.552 29.8958 10.12C29.7038 9.664 29.4398 9.268 29.1038 8.932C28.7918 8.596 28.4198 8.332 27.9878 8.14C27.5798 7.948 27.1478 7.852 26.6918 7.852C25.8518 7.852 25.1438 8.02 24.5678 8.356C23.9918 8.668 23.5238 9.1 23.1638 9.652C22.8038 10.204 22.5398 10.84 22.3718 11.56C22.2038 12.256 22.1198 12.976 22.1198 13.72C22.1198 14.608 22.2278 15.496 22.4438 16.384C22.6598 17.248 22.9718 18.028 23.3798 18.724C23.8118 19.396 24.3278 19.948 24.9278 20.38C25.5518 20.812 26.2598 21.028 27.0518 21.028ZM35.8358 21.028C36.6758 21.028 37.3958 20.86 37.9958 20.524C38.5958 20.188 39.0878 19.744 39.4718 19.192C39.8798 18.616 40.1798 17.98 40.3718 17.284C40.5638 16.564 40.6598 15.82 40.6598 15.052C40.6598 14.164 40.5638 13.3 40.3718 12.46C40.1798 11.596 39.8918 10.828 39.5078 10.156C39.1238 9.484 38.6318 8.944 38.0318 8.536C37.4558 8.104 36.7718 7.888 35.9798 7.888C34.9718 7.888 34.1438 8.236 33.4958 8.932C32.8478 9.604 32.5238 10.468 32.5238 11.524V17.608C32.5238 17.992 32.6078 18.388 32.7758 18.796C32.9678 19.18 33.2078 19.54 33.4958 19.876C33.8078 20.212 34.1678 20.488 34.5758 20.704C34.9838 20.92 35.4038 21.028 35.8358 21.028ZM60.0013 19.66C60.0013 19.852 60.0253 20.068 60.0733 20.308C60.1453 20.524 60.2293 20.728 60.3253 20.92C60.4213 21.112 60.5413 21.28 60.6853 21.424C60.8533 21.568 61.0093 21.64 61.1533 21.64V22H56.5453V21.64C56.7133 21.64 56.8693 21.58 57.0133 21.46C57.1573 21.316 57.2773 21.148 57.3733 20.956C57.4693 20.74 57.5413 20.524 57.5893 20.308C57.6373 20.068 57.6613 19.852 57.6613 19.66V11.02L49.0933 19.408V19.66C49.0933 19.852 49.1173 20.068 49.1653 20.308C49.2133 20.524 49.2853 20.728 49.3813 20.92C49.4773 21.112 49.5853 21.28 49.7053 21.424C49.8493 21.568 50.0053 21.64 50.1733 21.64V22H45.6013V21.64C45.7693 21.64 45.9253 21.58 46.0693 21.46C46.2133 21.316 46.3333 21.148 46.4293 20.956C46.5253 20.74 46.5973 20.524 46.6453 20.308C46.6933 20.068 46.7173 19.852 46.7173 19.66V9.112C46.7173 8.944 46.6933 8.752 46.6453 8.536C46.5973 8.32 46.5253 8.116 46.4293 7.924C46.3333 7.732 46.2133 7.576 46.0693 7.456C45.9253 7.312 45.7693 7.24 45.6013 7.24V6.88H50.1733V7.24C49.9813 7.24 49.8133 7.312 49.6693 7.456C49.5493 7.576 49.4413 7.732 49.3453 7.924C49.2733 8.116 49.2133 8.32 49.1653 8.536C49.1173 8.752 49.0933 8.944 49.0933 9.112V17.716L57.6613 9.328V9.112C57.6613 8.944 57.6373 8.752 57.5893 8.536C57.5413 8.32 57.4693 8.116 57.3733 7.924C57.2773 7.732 57.1573 7.576 57.0133 7.456C56.8693 7.312 56.7133 7.24 56.5453 7.24V6.88H61.1533V7.24C60.9613 7.24 60.7813 7.312 60.6133 7.456C60.4693 7.576 60.3493 7.732 60.2533 7.924C60.1813 8.116 60.1213 8.32 60.0733 8.536C60.0253 8.752 60.0013 8.944 60.0013 9.112V19.66ZM80.964 20.812V25.168H80.604C80.604 24.856 80.52 24.52 80.352 24.16C80.208 23.8 80.004 23.452 79.74 23.116C79.476 22.804 79.164 22.54 78.804 22.324C78.468 22.108 78.108 22 77.724 22H64.656V21.64C64.824 21.64 64.968 21.58 65.088 21.46C65.232 21.316 65.352 21.148 65.448 20.956C65.544 20.74 65.616 20.524 65.664 20.308C65.712 20.092 65.736 19.912 65.736 19.768V9.22C65.736 9.052 65.712 8.848 65.664 8.608C65.64 8.368 65.592 8.152 65.52 7.96C65.448 7.768 65.34 7.6 65.196 7.456C65.052 7.312 64.872 7.24 64.656 7.24V6.88H69.228V7.24C69.012 7.24 68.832 7.312 68.688 7.456C68.568 7.576 68.46 7.744 68.364 7.96C68.268 8.152 68.196 8.368 68.148 8.608C68.124 8.824 68.112 9.028 68.112 9.22V20.812H75.96V9.22C75.96 9.052 75.936 8.848 75.888 8.608C75.864 8.368 75.804 8.152 75.708 7.96C75.612 7.768 75.492 7.6 75.348 7.456C75.228 7.312 75.06 7.24 74.844 7.24V6.88H79.416V7.24C79.2 7.24 79.02 7.312 78.876 7.456C78.756 7.576 78.648 7.744 78.552 7.96C78.48 8.152 78.42 8.368 78.372 8.608C78.348 8.824 78.336 9.028 78.336 9.22V18.832C78.336 19.312 78.432 19.768 78.624 20.2C78.84 20.608 79.236 20.812 79.812 20.812H80.964ZM97.513 19.66C97.513 19.852 97.537 20.068 97.585 20.308C97.657 20.524 97.741 20.728 97.837 20.92C97.933 21.112 98.053 21.28 98.197 21.424C98.365 21.568 98.521 21.64 98.665 21.64V22H94.057V21.64C94.225 21.64 94.381 21.58 94.525 21.46C94.669 21.316 94.789 21.148 94.885 20.956C94.981 20.74 95.053 20.524 95.101 20.308C95.149 20.068 95.173 19.852 95.173 19.66V11.02L86.605 19.408V19.66C86.605 19.852 86.629 20.068 86.677 20.308C86.725 20.524 86.797 20.728 86.893 20.92C86.989 21.112 87.097 21.28 87.217 21.424C87.361 21.568 87.517 21.64 87.685 21.64V22H83.113V21.64C83.281 21.64 83.437 21.58 83.581 21.46C83.725 21.316 83.845 21.148 83.941 20.956C84.037 20.74 84.109 20.524 84.157 20.308C84.205 20.068 84.229 19.852 84.229 19.66V9.112C84.229 8.944 84.205 8.752 84.157 8.536C84.109 8.32 84.037 8.116 83.941 7.924C83.845 7.732 83.725 7.576 83.581 7.456C83.437 7.312 83.281 7.24 83.113 7.24V6.88H87.685V7.24C87.493 7.24 87.325 7.312 87.181 7.456C87.061 7.576 86.953 7.732 86.857 7.924C86.785 8.116 86.725 8.32 86.677 8.536C86.629 8.752 86.605 8.944 86.605 9.112V17.716L95.173 9.328V9.112C95.173 8.944 95.149 8.752 95.101 8.536C95.053 8.32 94.981 8.116 94.885 7.924C94.789 7.732 94.669 7.576 94.525 7.456C94.381 7.312 94.225 7.24 94.057 7.24V6.88H98.665V7.24C98.473 7.24 98.293 7.312 98.125 7.456C97.981 7.576 97.861 7.732 97.765 7.924C97.693 8.116 97.633 8.32 97.585 8.536C97.537 8.752 97.513 8.944 97.513 9.112V19.66ZM111.636 22V20.164L111.456 20.344C110.856 20.944 110.16 21.412 109.368 21.748C108.6 22.084 107.664 22.252 106.56 22.252C105.72 22.252 105 22.156 104.4 21.964C103.8 21.772 103.308 21.508 102.924 21.172C102.54 20.812 102.252 20.404 102.06 19.948C101.892 19.492 101.808 19.012 101.808 18.508C101.808 17.692 102.024 16.972 102.456 16.348C102.912 15.724 103.56 15.172 104.4 14.692C105.24 14.212 106.26 13.78 107.46 13.396C108.684 12.988 110.076 12.592 111.636 12.208C111.588 11.272 111.396 10.516 111.06 9.94C110.724 9.364 110.328 8.92 109.872 8.608C109.416 8.272 108.936 8.056 108.432 7.96C107.928 7.84 107.496 7.78 107.136 7.78C106.512 7.78 105.96 7.876 105.48 8.068C105 8.236 104.58 8.476 104.22 8.788C103.86 9.076 103.56 9.412 103.32 9.796C103.104 10.18 102.936 10.564 102.816 10.948H102.492V8.14C102.708 8.14 102.96 8.068 103.248 7.924C103.536 7.756 103.872 7.576 104.256 7.384C104.664 7.192 105.144 7.024 105.696 6.88C106.272 6.712 106.956 6.628 107.748 6.628C109.068 6.628 110.136 6.796 110.952 7.132C111.768 7.468 112.392 7.912 112.824 8.464C113.28 9.016 113.58 9.652 113.724 10.372C113.868 11.068 113.94 11.788 113.94 12.532V19.66C113.94 20.14 114.06 20.596 114.3 21.028C114.54 21.436 114.864 21.64 115.272 21.64V22H111.636ZM111.636 18.58V13.432L111.276 13.504C110.7 13.648 109.992 13.84 109.152 14.08C108.336 14.32 107.556 14.632 106.812 15.016C106.068 15.4 105.432 15.856 104.904 16.384C104.376 16.912 104.112 17.524 104.112 18.22C104.112 18.988 104.424 19.624 105.048 20.128C105.672 20.632 106.488 20.884 107.496 20.884C108.288 20.884 108.984 20.716 109.584 20.38C110.184 20.02 110.736 19.564 111.24 19.012L111.636 18.58ZM129.385 21.64C129.553 21.64 129.745 21.568 129.961 21.424C130.177 21.28 130.285 21.076 130.285 20.812C130.285 20.764 130.261 20.668 130.213 20.524C130.189 20.356 130.129 20.176 130.033 19.984L125.461 9.184L120.709 20.524C120.301 21.508 119.497 22 118.297 22H117.505V21.64C117.841 21.64 118.201 21.472 118.585 21.136C118.993 20.776 119.317 20.356 119.557 19.876L124.453 8.428C124.573 8.116 124.633 7.864 124.633 7.672C124.633 7.384 124.441 7.24 124.057 7.24V6.88H126.973L132.517 19.84C132.685 20.2 132.925 20.596 133.237 21.028C133.573 21.436 133.885 21.64 134.173 21.64V22H129.385V21.64ZM142.675 13.432C143.779 13.432 144.739 13.54 145.555 13.756C146.395 13.972 147.079 14.272 147.607 14.656C148.159 15.04 148.567 15.496 148.831 16.024C149.095 16.528 149.227 17.08 149.227 17.68C149.227 18.28 149.095 18.844 148.831 19.372C148.567 19.9 148.147 20.356 147.571 20.74C147.019 21.124 146.323 21.436 145.483 21.676C144.643 21.892 143.647 22 142.495 22H136.339V21.64C136.531 21.64 136.699 21.58 136.843 21.46C136.987 21.316 137.107 21.148 137.203 20.956C137.323 20.74 137.407 20.524 137.455 20.308C137.503 20.068 137.527 19.852 137.527 19.66V9.112C137.527 8.944 137.503 8.752 137.455 8.536C137.407 8.32 137.323 8.116 137.203 7.924C137.107 7.732 136.987 7.576 136.843 7.456C136.699 7.312 136.531 7.24 136.339 7.24V6.88H141.055V7.24C140.695 7.24 140.407 7.468 140.191 7.924C139.975 8.356 139.867 8.752 139.867 9.112V13.432H142.675ZM142.423 20.812C144.007 20.812 145.147 20.56 145.843 20.056C146.563 19.528 146.923 18.88 146.923 18.112C146.923 17.68 146.827 17.26 146.635 16.852C146.443 16.42 146.143 16.048 145.735 15.736C145.351 15.4 144.871 15.136 144.295 14.944C143.719 14.728 143.059 14.62 142.315 14.62H139.867V20.812H142.423ZM155.898 19.66C155.898 19.852 155.922 20.068 155.97 20.308C156.018 20.524 156.09 20.728 156.186 20.92C156.282 21.112 156.39 21.28 156.51 21.424C156.654 21.568 156.81 21.64 156.978 21.64V22H152.442V21.64C152.61 21.64 152.754 21.58 152.874 21.46C153.018 21.316 153.138 21.148 153.234 20.956C153.33 20.74 153.402 20.524 153.45 20.308C153.498 20.068 153.522 19.852 153.522 19.66V9.112C153.522 8.944 153.498 8.752 153.45 8.536C153.402 8.32 153.33 8.116 153.234 7.924C153.138 7.732 153.018 7.576 152.874 7.456C152.754 7.312 152.61 7.24 152.442 7.24V6.88H156.978V7.24C156.786 7.24 156.618 7.312 156.474 7.456C156.354 7.576 156.246 7.732 156.15 7.924C156.078 8.116 156.018 8.32 155.97 8.536C155.922 8.752 155.898 8.944 155.898 9.112V13.468H164.106V9.112C164.106 8.944 164.082 8.752 164.034 8.536C163.986 8.32 163.914 8.116 163.818 7.924C163.746 7.732 163.638 7.576 163.494 7.456C163.374 7.312 163.218 7.24 163.026 7.24V6.88H167.562V7.24C167.37 7.24 167.202 7.312 167.058 7.456C166.938 7.576 166.83 7.732 166.734 7.924C166.638 8.116 166.566 8.32 166.518 8.536C166.494 8.752 166.482 8.944 166.482 9.112V19.66C166.482 19.852 166.506 20.068 166.554 20.308C166.602 20.524 166.674 20.728 166.77 20.92C166.866 21.112 166.974 21.28 167.094 21.424C167.238 21.568 167.394 21.64 167.562 21.64V22H163.026V21.64C163.194 21.64 163.338 21.58 163.458 21.46C163.602 21.316 163.722 21.148 163.818 20.956C163.914 20.74 163.986 20.524 164.034 20.308C164.082 20.068 164.106 19.852 164.106 19.66V14.656H155.898V19.66ZM185.942 22V21.64C186.11 21.64 186.266 21.58 186.41 21.46C186.554 21.316 186.674 21.148 186.77 20.956C186.89 20.74 186.974 20.524 187.022 20.308C187.07 20.068 187.094 19.852 187.094 19.66V9.112C187.094 8.944 187.07 8.752 187.022 8.536C186.974 8.32 186.89 8.116 186.77 7.924C186.674 7.732 186.554 7.576 186.41 7.456C186.266 7.312 186.11 7.24 185.942 7.24V6.88H190.622V7.24C190.262 7.24 189.974 7.468 189.758 7.924C189.542 8.356 189.434 8.752 189.434 9.112V19.66C189.434 19.852 189.458 20.068 189.506 20.308C189.554 20.524 189.626 20.728 189.722 20.92C189.842 21.112 189.974 21.28 190.118 21.424C190.262 21.568 190.43 21.64 190.622 21.64V22H185.942ZM177.446 13.432C179.654 13.432 181.286 13.84 182.342 14.656C183.422 15.472 183.962 16.48 183.962 17.68C183.962 18.28 183.818 18.844 183.53 19.372C183.266 19.9 182.858 20.356 182.306 20.74C181.754 21.124 181.058 21.436 180.218 21.676C179.378 21.892 178.382 22 177.23 22H171.11V21.64C171.278 21.64 171.434 21.58 171.578 21.46C171.722 21.316 171.842 21.148 171.938 20.956C172.058 20.74 172.142 20.524 172.19 20.308C172.238 20.068 172.262 19.852 172.262 19.66V9.112C172.262 8.944 172.238 8.752 172.19 8.536C172.142 8.32 172.058 8.116 171.938 7.924C171.842 7.732 171.722 7.576 171.578 7.456C171.434 7.312 171.278 7.24 171.11 7.24V6.88H175.79V7.24C175.43 7.24 175.142 7.468 174.926 7.924C174.71 8.356 174.602 8.752 174.602 9.112V13.432H177.446ZM177.158 20.812C178.742 20.812 179.882 20.56 180.578 20.056C181.298 19.528 181.658 18.88 181.658 18.112C181.658 17.68 181.562 17.26 181.37 16.852C181.178 16.42 180.878 16.048 180.47 15.736C180.086 15.4 179.606 15.136 179.03 14.944C178.454 14.728 177.794 14.62 177.05 14.62H174.602V20.812H177.158ZM208.607 19.66C208.607 19.852 208.631 20.068 208.679 20.308C208.751 20.524 208.835 20.728 208.931 20.92C209.027 21.112 209.147 21.28 209.291 21.424C209.459 21.568 209.615 21.64 209.759 21.64V22H205.151V21.64C205.319 21.64 205.475 21.58 205.619 21.46C205.763 21.316 205.883 21.148 205.979 20.956C206.075 20.74 206.147 20.524 206.195 20.308C206.243 20.068 206.267 19.852 206.267 19.66V11.02L197.699 19.408V19.66C197.699 19.852 197.723 20.068 197.771 20.308C197.819 20.524 197.891 20.728 197.987 20.92C198.083 21.112 198.191 21.28 198.311 21.424C198.455 21.568 198.611 21.64 198.779 21.64V22H194.207V21.64C194.375 21.64 194.531 21.58 194.675 21.46C194.819 21.316 194.939 21.148 195.035 20.956C195.131 20.74 195.203 20.524 195.251 20.308C195.299 20.068 195.323 19.852 195.323 19.66V9.112C195.323 8.944 195.299 8.752 195.251 8.536C195.203 8.32 195.131 8.116 195.035 7.924C194.939 7.732 194.819 7.576 194.675 7.456C194.531 7.312 194.375 7.24 194.207 7.24V6.88H198.779V7.24C198.587 7.24 198.419 7.312 198.275 7.456C198.155 7.576 198.047 7.732 197.951 7.924C197.879 8.116 197.819 8.32 197.771 8.536C197.723 8.752 197.699 8.944 197.699 9.112V17.716L206.267 9.328V9.112C206.267 8.944 206.243 8.752 206.195 8.536C206.147 8.32 206.075 8.116 205.979 7.924C205.883 7.732 205.763 7.576 205.619 7.456C205.475 7.312 205.319 7.24 205.151 7.24V6.88H209.759V7.24C209.567 7.24 209.387 7.312 209.219 7.456C209.075 7.576 208.955 7.732 208.859 7.924C208.787 8.116 208.727 8.32 208.679 8.536C208.631 8.752 208.607 8.944 208.607 9.112V19.66ZM205.835 2.02C205.835 2.404 205.739 2.824 205.547 3.28C205.355 3.712 205.079 4.12 204.719 4.504C204.359 4.864 203.927 5.164 203.423 5.404C202.943 5.644 202.403 5.764 201.803 5.764C201.251 5.764 200.723 5.656 200.219 5.44C199.739 5.2 199.319 4.9 198.959 4.54C198.599 4.18 198.311 3.784 198.095 3.352C197.879 2.896 197.771 2.452 197.771 2.02H197.987C198.011 2.164 198.083 2.368 198.203 2.632C198.347 2.872 198.563 3.124 198.851 3.388C199.139 3.652 199.511 3.88 199.967 4.072C200.447 4.264 201.047 4.36 201.767 4.36C202.511 4.36 203.123 4.264 203.603 4.072C204.083 3.88 204.467 3.652 204.755 3.388C205.043 3.124 205.247 2.872 205.367 2.632C205.487 2.368 205.571 2.164 205.619 2.02H205.835ZM238.597 20.812V25.24H238.237C238.189 24.952 238.105 24.616 237.985 24.232C237.865 23.872 237.697 23.524 237.481 23.188C237.265 22.852 237.001 22.564 236.689 22.324C236.401 22.108 236.065 22 235.681 22H224.233C223.849 22 223.501 22.108 223.189 22.324C222.877 22.564 222.601 22.852 222.361 23.188C222.145 23.524 221.965 23.872 221.821 24.232C221.701 24.616 221.629 24.952 221.605 25.24H221.245V20.812H222.613C222.757 20.812 222.889 20.752 223.009 20.632C223.153 20.512 223.285 20.368 223.405 20.2C223.549 20.032 223.681 19.852 223.801 19.66C223.921 19.444 224.029 19.252 224.125 19.084C224.485 18.268 224.917 17.296 225.421 16.168C225.949 15.04 226.477 13.876 227.005 12.676C227.557 11.476 228.085 10.312 228.589 9.184C229.093 8.032 229.525 7.048 229.885 6.232L235.969 19.516C236.161 19.924 236.341 20.248 236.509 20.488C236.677 20.704 236.905 20.812 237.193 20.812H238.597ZM224.593 20.812H233.953L229.273 10.552L224.593 20.812ZM255.154 19.66C255.154 19.852 255.178 20.068 255.226 20.308C255.298 20.524 255.382 20.728 255.478 20.92C255.574 21.112 255.694 21.28 255.838 21.424C256.006 21.568 256.162 21.64 256.306 21.64V22H251.698V21.64C251.866 21.64 252.022 21.58 252.166 21.46C252.31 21.316 252.43 21.148 252.526 20.956C252.622 20.74 252.694 20.524 252.742 20.308C252.79 20.068 252.814 19.852 252.814 19.66V11.02L244.246 19.408V19.66C244.246 19.852 244.27 20.068 244.318 20.308C244.366 20.524 244.438 20.728 244.534 20.92C244.63 21.112 244.738 21.28 244.858 21.424C245.002 21.568 245.158 21.64 245.326 21.64V22H240.754V21.64C240.922 21.64 241.078 21.58 241.222 21.46C241.366 21.316 241.486 21.148 241.582 20.956C241.678 20.74 241.75 20.524 241.798 20.308C241.846 20.068 241.87 19.852 241.87 19.66V9.112C241.87 8.944 241.846 8.752 241.798 8.536C241.75 8.32 241.678 8.116 241.582 7.924C241.486 7.732 241.366 7.576 241.222 7.456C241.078 7.312 240.922 7.24 240.754 7.24V6.88H245.326V7.24C245.134 7.24 244.966 7.312 244.822 7.456C244.702 7.576 244.594 7.732 244.498 7.924C244.426 8.116 244.366 8.32 244.318 8.536C244.27 8.752 244.246 8.944 244.246 9.112V17.716L252.814 9.328V9.112C252.814 8.944 252.79 8.752 252.742 8.536C252.694 8.32 252.622 8.116 252.526 7.924C252.43 7.732 252.31 7.576 252.166 7.456C252.022 7.312 251.866 7.24 251.698 7.24V6.88H256.306V7.24C256.114 7.24 255.934 7.312 255.766 7.456C255.622 7.576 255.502 7.732 255.406 7.924C255.334 8.116 255.274 8.32 255.226 8.536C255.178 8.752 255.154 8.944 255.154 9.112V19.66ZM273.056 20.704C272.864 20.704 272.684 20.752 272.516 20.848C272.348 20.92 272.156 21.016 271.94 21.136C271.532 21.376 270.992 21.628 270.32 21.892C269.648 22.132 268.808 22.252 267.8 22.252C266.576 22.252 265.448 22.06 264.416 21.676C263.408 21.268 262.532 20.716 261.788 20.02C261.044 19.3 260.468 18.472 260.06 17.536C259.652 16.576 259.448 15.544 259.448 14.44C259.448 13.408 259.628 12.424 259.988 11.488C260.372 10.552 260.912 9.724 261.608 9.004C262.304 8.284 263.156 7.708 264.164 7.276C265.196 6.844 266.36 6.628 267.656 6.628C268.544 6.628 269.264 6.736 269.816 6.952C270.368 7.144 270.836 7.336 271.22 7.528C271.436 7.648 271.64 7.744 271.832 7.816C272.048 7.888 272.264 7.924 272.48 7.924V10.66H272.12C272 10.204 271.784 9.808 271.472 9.472C271.16 9.112 270.8 8.812 270.392 8.572C269.984 8.332 269.54 8.152 269.06 8.032C268.58 7.912 268.112 7.852 267.656 7.852C266.672 7.852 265.808 8.032 265.064 8.392C264.32 8.728 263.708 9.184 263.228 9.76C262.748 10.312 262.388 10.948 262.148 11.668C261.908 12.388 261.788 13.132 261.788 13.9C261.788 14.788 261.92 15.664 262.184 16.528C262.472 17.368 262.868 18.124 263.372 18.796C263.9 19.468 264.536 20.008 265.28 20.416C266.048 20.824 266.912 21.028 267.872 21.028C268.544 21.028 269.168 20.932 269.744 20.74C270.32 20.548 270.812 20.296 271.22 19.984C271.652 19.672 271.988 19.336 272.228 18.976C272.492 18.592 272.648 18.232 272.696 17.896H273.056V20.704ZM287.62 10.66C287.62 10.396 287.572 10.108 287.476 9.796C287.38 9.484 287.236 9.208 287.044 8.968C286.852 8.704 286.612 8.488 286.324 8.32C286.036 8.152 285.7 8.068 285.316 8.068H282.148V19.66C282.148 19.852 282.172 20.056 282.22 20.272C282.268 20.488 282.34 20.704 282.436 20.92C282.556 21.112 282.676 21.28 282.796 21.424C282.94 21.568 283.108 21.64 283.3 21.64V22H278.62V21.64C278.812 21.64 278.98 21.568 279.124 21.424C279.268 21.28 279.388 21.112 279.484 20.92C279.604 20.728 279.688 20.524 279.736 20.308C279.784 20.068 279.808 19.852 279.808 19.66V8.068H276.712C276.328 8.068 275.992 8.152 275.704 8.32C275.416 8.488 275.176 8.704 274.984 8.968C274.816 9.208 274.684 9.484 274.588 9.796C274.492 10.108 274.444 10.396 274.444 10.66H274.084V6.88H287.944V10.66H287.62ZM297.675 6.628C298.971 6.628 300.087 6.856 301.023 7.312C301.983 7.744 302.775 8.32 303.399 9.04C304.047 9.76 304.527 10.588 304.839 11.524C305.151 12.46 305.307 13.42 305.307 14.404C305.307 15.364 305.151 16.312 304.839 17.248C304.551 18.184 304.095 19.024 303.471 19.768C302.871 20.512 302.115 21.112 301.203 21.568C300.291 22.024 299.211 22.252 297.963 22.252C297.219 22.252 296.451 22.06 295.659 21.676C294.891 21.268 294.195 20.764 293.571 20.164V27.58C293.571 27.772 293.595 27.976 293.643 28.192C293.691 28.432 293.763 28.648 293.859 28.84C293.979 29.032 294.099 29.2 294.219 29.344C294.363 29.488 294.531 29.56 294.723 29.56V29.92H290.043V29.56C290.211 29.56 290.367 29.488 290.511 29.344C290.655 29.2 290.775 29.032 290.871 28.84C290.991 28.648 291.075 28.432 291.123 28.192C291.171 27.976 291.195 27.772 291.195 27.58V9.004C291.195 8.788 291.183 8.584 291.159 8.392C291.159 8.176 291.123 7.996 291.051 7.852C290.979 7.684 290.859 7.552 290.691 7.456C290.547 7.336 290.331 7.264 290.043 7.24V6.88H293.571V8.464C294.051 7.888 294.627 7.444 295.299 7.132C295.995 6.796 296.787 6.628 297.675 6.628ZM297.999 21.028C298.839 21.004 299.571 20.812 300.195 20.452C300.819 20.092 301.335 19.624 301.743 19.048C302.151 18.472 302.451 17.836 302.643 17.14C302.835 16.42 302.931 15.676 302.931 14.908C302.931 14.044 302.811 13.192 302.571 12.352C302.331 11.512 301.983 10.768 301.527 10.12C301.071 9.448 300.507 8.908 299.835 8.5C299.187 8.068 298.443 7.852 297.603 7.852C297.099 7.852 296.595 7.948 296.091 8.14C295.611 8.332 295.179 8.608 294.795 8.968C294.435 9.328 294.135 9.76 293.895 10.264C293.679 10.744 293.571 11.284 293.571 11.884V16.6C293.571 17.248 293.703 17.848 293.967 18.4C294.231 18.928 294.567 19.396 294.975 19.804C295.407 20.188 295.887 20.488 296.415 20.704C296.943 20.92 297.471 21.028 297.999 21.028ZM322.97 19.66C322.97 19.852 322.994 20.068 323.042 20.308C323.114 20.524 323.198 20.728 323.294 20.92C323.39 21.112 323.51 21.28 323.654 21.424C323.822 21.568 323.978 21.64 324.122 21.64V22H319.514V21.64C319.682 21.64 319.838 21.58 319.982 21.46C320.126 21.316 320.246 21.148 320.342 20.956C320.438 20.74 320.51 20.524 320.558 20.308C320.606 20.068 320.63 19.852 320.63 19.66V11.02L312.062 19.408V19.66C312.062 19.852 312.086 20.068 312.134 20.308C312.182 20.524 312.254 20.728 312.35 20.92C312.446 21.112 312.554 21.28 312.674 21.424C312.818 21.568 312.974 21.64 313.142 21.64V22H308.57V21.64C308.738 21.64 308.894 21.58 309.038 21.46C309.182 21.316 309.302 21.148 309.398 20.956C309.494 20.74 309.566 20.524 309.614 20.308C309.662 20.068 309.686 19.852 309.686 19.66V9.112C309.686 8.944 309.662 8.752 309.614 8.536C309.566 8.32 309.494 8.116 309.398 7.924C309.302 7.732 309.182 7.576 309.038 7.456C308.894 7.312 308.738 7.24 308.57 7.24V6.88H313.142V7.24C312.95 7.24 312.782 7.312 312.638 7.456C312.518 7.576 312.41 7.732 312.314 7.924C312.242 8.116 312.182 8.32 312.134 8.536C312.086 8.752 312.062 8.944 312.062 9.112V17.716L320.63 9.328V9.112C320.63 8.944 320.606 8.752 320.558 8.536C320.51 8.32 320.438 8.116 320.342 7.924C320.246 7.732 320.126 7.576 319.982 7.456C319.838 7.312 319.682 7.24 319.514 7.24V6.88H324.122V7.24C323.93 7.24 323.75 7.312 323.582 7.456C323.438 7.576 323.318 7.732 323.222 7.924C323.15 8.116 323.09 8.32 323.042 8.536C322.994 8.752 322.97 8.944 322.97 9.112V19.66ZM335.365 6.628C336.565 6.628 337.645 6.832 338.605 7.24C339.589 7.624 340.417 8.164 341.089 8.86C341.785 9.532 342.313 10.336 342.673 11.272C343.033 12.208 343.213 13.228 343.213 14.332C343.213 15.508 343.009 16.588 342.601 17.572C342.193 18.532 341.629 19.36 340.909 20.056C340.189 20.752 339.337 21.292 338.353 21.676C337.369 22.06 336.301 22.252 335.149 22.252C333.925 22.252 332.833 22.024 331.873 21.568C330.913 21.088 330.097 20.44 329.425 19.624C328.753 18.808 328.237 17.848 327.877 16.744C327.517 15.616 327.337 14.404 327.337 13.108C327.337 12.364 327.373 11.68 327.445 11.056C327.541 10.432 327.673 9.832 327.841 9.256C328.033 8.656 328.261 8.08 328.525 7.528C328.789 6.976 329.101 6.4 329.461 5.8C330.469 4.216 331.729 2.968 333.241 2.056C334.777 1.144 336.337 0.688 337.921 0.688H342.493L341.089 2.992H337.345C336.577 2.992 335.809 3.136 335.041 3.424C334.273 3.688 333.541 4.096 332.845 4.648C332.173 5.176 331.573 5.824 331.045 6.592C330.517 7.36 330.097 8.236 329.785 9.22C330.433 8.428 331.177 7.804 332.017 7.348C332.881 6.868 333.997 6.628 335.365 6.628ZM335.581 21.028C336.469 20.98 337.249 20.776 337.921 20.416C338.593 20.032 339.157 19.552 339.613 18.976C340.069 18.376 340.405 17.716 340.621 16.996C340.861 16.252 340.981 15.496 340.981 14.728C340.981 13.84 340.837 12.988 340.549 12.172C340.261 11.332 339.853 10.6 339.325 9.976C338.797 9.352 338.161 8.848 337.417 8.464C336.697 8.08 335.893 7.888 335.005 7.888C334.141 7.888 333.373 8.08 332.701 8.464C332.029 8.824 331.465 9.304 331.009 9.904C330.553 10.504 330.205 11.188 329.965 11.956C329.749 12.724 329.641 13.492 329.641 14.26C329.641 15.028 329.773 15.82 330.037 16.636C330.325 17.428 330.721 18.148 331.225 18.796C331.753 19.444 332.377 19.984 333.097 20.416C333.841 20.824 334.669 21.028 335.581 21.028ZM352.769 13.432C353.873 13.432 354.833 13.54 355.649 13.756C356.489 13.972 357.173 14.272 357.701 14.656C358.253 15.04 358.661 15.496 358.925 16.024C359.189 16.528 359.321 17.08 359.321 17.68C359.321 18.28 359.189 18.844 358.925 19.372C358.661 19.9 358.241 20.356 357.665 20.74C357.113 21.124 356.417 21.436 355.577 21.676C354.737 21.892 353.741 22 352.589 22H346.433V21.64C346.625 21.64 346.793 21.58 346.937 21.46C347.081 21.316 347.201 21.148 347.297 20.956C347.417 20.74 347.501 20.524 347.549 20.308C347.597 20.068 347.621 19.852 347.621 19.66V9.112C347.621 8.944 347.597 8.752 347.549 8.536C347.501 8.32 347.417 8.116 347.297 7.924C347.201 7.732 347.081 7.576 346.937 7.456C346.793 7.312 346.625 7.24 346.433 7.24V6.88H351.149V7.24C350.789 7.24 350.501 7.468 350.285 7.924C350.069 8.356 349.961 8.752 349.961 9.112V13.432H352.769ZM352.517 20.812C354.101 20.812 355.241 20.56 355.937 20.056C356.657 19.528 357.017 18.88 357.017 18.112C357.017 17.68 356.921 17.26 356.729 16.852C356.537 16.42 356.237 16.048 355.829 15.736C355.445 15.4 354.965 15.136 354.389 14.944C353.813 14.728 353.153 14.62 352.409 14.62H349.961V20.812H352.517ZM376.324 6.628C377.524 6.628 378.592 6.832 379.528 7.24C380.488 7.624 381.292 8.164 381.94 8.86C382.588 9.532 383.08 10.336 383.416 11.272C383.776 12.208 383.956 13.228 383.956 14.332C383.956 15.508 383.764 16.588 383.38 17.572C382.996 18.532 382.444 19.36 381.724 20.056C381.028 20.752 380.2 21.292 379.24 21.676C378.28 22.06 377.224 22.252 376.072 22.252C374.944 22.252 373.912 22.048 372.976 21.64C372.064 21.208 371.272 20.644 370.6 19.948C369.928 19.252 369.4 18.448 369.016 17.536C368.656 16.624 368.464 15.664 368.44 14.656H365.992V19.66C365.992 19.852 366.016 20.056 366.064 20.272C366.112 20.488 366.172 20.704 366.244 20.92C366.34 21.112 366.448 21.28 366.568 21.424C366.688 21.544 366.832 21.616 367 21.64V22H362.536V21.64C362.704 21.616 362.848 21.544 362.968 21.424C363.112 21.28 363.232 21.112 363.328 20.92C363.424 20.704 363.496 20.488 363.544 20.272C363.592 20.056 363.616 19.852 363.616 19.66V9.112C363.616 8.8 363.52 8.428 363.328 7.996C363.16 7.54 362.908 7.288 362.572 7.24V6.88H367V7.24C366.64 7.288 366.376 7.54 366.208 7.996C366.064 8.428 365.992 8.8 365.992 9.112V13.468H368.512C368.656 12.58 368.92 11.728 369.304 10.912C369.688 10.072 370.204 9.34 370.852 8.716C371.5 8.068 372.28 7.564 373.192 7.204C374.104 6.82 375.148 6.628 376.324 6.628ZM376.612 20.992C377.476 20.968 378.22 20.776 378.844 20.416C379.492 20.032 380.02 19.552 380.428 18.976C380.836 18.376 381.136 17.716 381.328 16.996C381.52 16.252 381.616 15.496 381.616 14.728C381.616 13.84 381.484 12.988 381.22 12.172C380.956 11.332 380.572 10.6 380.068 9.976C379.588 9.328 379 8.812 378.304 8.428C377.608 8.044 376.816 7.852 375.928 7.852C375.04 7.852 374.272 8.044 373.624 8.428C373 8.788 372.472 9.268 372.04 9.868C371.632 10.444 371.32 11.116 371.104 11.884C370.912 12.628 370.816 13.384 370.816 14.152C370.816 14.944 370.924 15.748 371.14 16.564C371.38 17.38 371.728 18.112 372.184 18.76C372.664 19.408 373.264 19.948 373.984 20.38C374.728 20.788 375.604 20.992 376.612 20.992ZM398.819 10.66C398.819 10.396 398.771 10.108 398.675 9.796C398.579 9.484 398.435 9.208 398.243 8.968C398.051 8.704 397.811 8.488 397.523 8.32C397.235 8.152 396.899 8.068 396.515 8.068H393.347V19.66C393.347 19.852 393.371 20.056 393.419 20.272C393.467 20.488 393.539 20.704 393.635 20.92C393.755 21.112 393.875 21.28 393.995 21.424C394.139 21.568 394.307 21.64 394.499 21.64V22H389.819V21.64C390.011 21.64 390.179 21.568 390.323 21.424C390.467 21.28 390.587 21.112 390.683 20.92C390.803 20.728 390.887 20.524 390.935 20.308C390.983 20.068 391.007 19.852 391.007 19.66V8.068H387.911C387.527 8.068 387.191 8.152 386.903 8.32C386.615 8.488 386.375 8.704 386.183 8.968C386.015 9.208 385.883 9.484 385.787 9.796C385.691 10.108 385.643 10.396 385.643 10.66H385.283V6.88H399.143V10.66H398.819ZM408.239 22.252C407.039 22.252 405.959 22.06 404.999 21.676C404.039 21.268 403.211 20.728 402.515 20.056C401.843 19.36 401.315 18.544 400.931 17.608C400.571 16.672 400.391 15.652 400.391 14.548C400.391 13.372 400.595 12.304 401.003 11.344C401.411 10.36 401.975 9.52 402.695 8.824C403.415 8.128 404.267 7.588 405.251 7.204C406.235 6.82 407.303 6.628 408.455 6.628C409.607 6.628 410.663 6.82 411.623 7.204C412.583 7.564 413.411 8.08 414.107 8.752C414.803 9.424 415.343 10.228 415.727 11.164C416.111 12.076 416.303 13.084 416.303 14.188C416.303 15.22 416.123 16.228 415.763 17.212C415.427 18.172 414.911 19.024 414.215 19.768C413.543 20.512 412.703 21.112 411.695 21.568C410.711 22.024 409.559 22.252 408.239 22.252ZM408.023 7.816C407.159 7.864 406.391 8.08 405.719 8.464C405.071 8.824 404.519 9.304 404.063 9.904C403.631 10.48 403.295 11.14 403.055 11.884C402.839 12.628 402.731 13.384 402.731 14.152C402.731 15.04 402.863 15.904 403.127 16.744C403.415 17.56 403.811 18.292 404.315 18.94C404.843 19.588 405.467 20.104 406.187 20.488C406.907 20.872 407.711 21.064 408.599 21.064C409.487 21.064 410.267 20.872 410.939 20.488C411.635 20.104 412.211 19.612 412.667 19.012C413.123 18.388 413.459 17.692 413.675 16.924C413.915 16.156 414.035 15.388 414.035 14.62C414.035 13.828 413.915 13.036 413.675 12.244C413.435 11.428 413.063 10.696 412.559 10.048C412.055 9.376 411.419 8.836 410.651 8.428C409.907 8.02 409.031 7.816 408.023 7.816ZM425.081 6.628C426.377 6.628 427.493 6.856 428.429 7.312C429.389 7.744 430.181 8.32 430.805 9.04C431.453 9.76 431.933 10.588 432.245 11.524C432.557 12.46 432.713 13.42 432.713 14.404C432.713 15.364 432.557 16.312 432.245 17.248C431.957 18.184 431.501 19.024 430.877 19.768C430.277 20.512 429.521 21.112 428.609 21.568C427.697 22.024 426.617 22.252 425.369 22.252C424.625 22.252 423.857 22.06 423.065 21.676C422.297 21.268 421.601 20.764 420.977 20.164V27.58C420.977 27.772 421.001 27.976 421.049 28.192C421.097 28.432 421.169 28.648 421.265 28.84C421.385 29.032 421.505 29.2 421.625 29.344C421.769 29.488 421.937 29.56 422.129 29.56V29.92H417.449V29.56C417.617 29.56 417.773 29.488 417.917 29.344C418.061 29.2 418.181 29.032 418.277 28.84C418.397 28.648 418.481 28.432 418.529 28.192C418.577 27.976 418.601 27.772 418.601 27.58V9.004C418.601 8.788 418.589 8.584 418.565 8.392C418.565 8.176 418.529 7.996 418.457 7.852C418.385 7.684 418.265 7.552 418.097 7.456C417.953 7.336 417.737 7.264 417.449 7.24V6.88H420.977V8.464C421.457 7.888 422.033 7.444 422.705 7.132C423.401 6.796 424.193 6.628 425.081 6.628ZM425.405 21.028C426.245 21.004 426.977 20.812 427.601 20.452C428.225 20.092 428.741 19.624 429.149 19.048C429.557 18.472 429.857 17.836 430.049 17.14C430.241 16.42 430.337 15.676 430.337 14.908C430.337 14.044 430.217 13.192 429.977 12.352C429.737 11.512 429.389 10.768 428.933 10.12C428.477 9.448 427.913 8.908 427.241 8.5C426.593 8.068 425.849 7.852 425.009 7.852C424.505 7.852 424.001 7.948 423.497 8.14C423.017 8.332 422.585 8.608 422.201 8.968C421.841 9.328 421.541 9.76 421.301 10.264C421.085 10.744 420.977 11.284 420.977 11.884V16.6C420.977 17.248 421.109 17.848 421.373 18.4C421.637 18.928 421.973 19.396 422.381 19.804C422.813 20.188 423.293 20.488 423.821 20.704C424.349 20.92 424.877 21.028 425.405 21.028ZM18.9 59.156C19.044 59.444 19.224 59.732 19.44 60.02C19.68 60.308 19.932 60.572 20.196 60.812C20.46 61.028 20.736 61.22 21.024 61.388C21.336 61.532 21.624 61.616 21.888 61.64V62H20.628C19.62 62 18.828 61.796 18.252 61.388C17.7 60.956 17.256 60.416 16.92 59.768L15.192 56.384C14.976 55.832 14.592 55.352 14.04 54.944C13.488 54.536 12.912 54.308 12.312 54.26V59.624C12.312 59.792 12.336 59.996 12.384 60.236C12.432 60.452 12.504 60.668 12.6 60.884C12.72 61.076 12.852 61.244 12.996 61.388C13.14 61.532 13.308 61.616 13.5 61.64V62H8.892V61.64C9.084 61.616 9.252 61.532 9.396 61.388C9.54 61.244 9.66 61.076 9.756 60.884C9.876 60.668 9.96 60.452 10.008 60.236C10.056 60.02 10.08 59.816 10.08 59.624V54.26C9.456 54.308 8.88 54.536 8.352 54.944C7.848 55.352 7.464 55.832 7.2 56.384L5.508 59.768C5.196 60.392 4.74 60.92 4.14 61.352C3.564 61.784 2.772 62 1.764 62H0.504V61.64C0.768 61.616 1.044 61.532 1.332 61.388C1.62 61.22 1.896 61.028 2.16 60.812C2.448 60.572 2.7 60.308 2.916 60.02C3.156 59.732 3.348 59.444 3.492 59.156L5.184 55.664C5.472 55.112 5.952 54.632 6.624 54.224C7.32 53.792 8.112 53.552 9 53.504C8.088 52.64 7.116 51.716 6.084 50.732C5.052 49.748 4.068 48.824 3.132 47.96C3.06 47.912 2.868 47.792 2.556 47.6C2.268 47.384 2.004 47.264 1.764 47.24V46.88H4.536V47.276C4.464 47.324 4.428 47.36 4.428 47.384C4.428 47.504 4.464 47.612 4.536 47.708L10.08 52.856V49.148C10.08 48.812 9.972 48.428 9.756 47.996C9.564 47.54 9.276 47.288 8.892 47.24V46.88H13.5V47.24C13.308 47.264 13.14 47.348 12.996 47.492C12.852 47.612 12.732 47.768 12.636 47.96C12.54 48.152 12.456 48.356 12.384 48.572C12.336 48.788 12.312 48.98 12.312 49.148V52.856L17.892 47.636C17.94 47.588 17.964 47.504 17.964 47.384C17.964 47.36 17.928 47.324 17.856 47.276V46.88H20.628V47.24C20.508 47.24 20.364 47.276 20.196 47.348C20.052 47.42 19.908 47.504 19.764 47.6C19.596 47.696 19.428 47.816 19.26 47.96L13.392 53.504C14.352 53.528 15.156 53.744 15.804 54.152C16.452 54.536 16.92 55.04 17.208 55.664L18.9 59.156ZM24.6234 54.728C24.7194 55.568 24.9234 56.372 25.2354 57.14C25.5474 57.884 25.9554 58.544 26.4594 59.12C26.9874 59.696 27.6234 60.164 28.3674 60.524C29.1114 60.86 29.9754 61.028 30.9594 61.028C31.4874 61.028 32.0394 60.956 32.6154 60.812C33.2154 60.644 33.7674 60.416 34.2714 60.128C34.7754 59.84 35.2194 59.492 35.6034 59.084C36.0114 58.652 36.2874 58.172 36.4314 57.644H36.7554V60.344C36.6114 60.344 36.4434 60.392 36.2514 60.488C36.0834 60.584 35.8794 60.704 35.6394 60.848C35.1594 61.136 34.5114 61.448 33.6954 61.784C32.8794 62.096 31.7994 62.252 30.4554 62.252C29.3754 62.252 28.3434 62.096 27.3594 61.784C26.3994 61.472 25.5474 60.992 24.8034 60.344C24.0594 59.696 23.4594 58.868 23.0034 57.86C22.5714 56.852 22.3554 55.652 22.3554 54.26C22.3554 53.372 22.4994 52.472 22.7874 51.56C23.0994 50.648 23.5554 49.832 24.1554 49.112C24.7794 48.368 25.5714 47.768 26.5314 47.312C27.4914 46.856 28.6434 46.628 29.9874 46.628C31.1874 46.628 32.2314 46.832 33.1194 47.24C34.0314 47.648 34.7754 48.212 35.3514 48.932C35.9514 49.652 36.3954 50.504 36.6834 51.488C36.9714 52.472 37.1154 53.552 37.1154 54.728H24.6234ZM29.8434 47.816C29.0034 47.816 28.2714 47.984 27.6474 48.32C27.0474 48.656 26.5314 49.088 26.0994 49.616C25.6674 50.144 25.3314 50.744 25.0914 51.416C24.8514 52.088 24.6954 52.76 24.6234 53.432H34.8834C34.8594 52.736 34.7274 52.052 34.4874 51.38C34.2714 50.708 33.9594 50.108 33.5514 49.58C33.1434 49.052 32.6274 48.632 32.0034 48.32C31.3794 47.984 30.6594 47.816 29.8434 47.816ZM43.6441 59.66C43.6441 59.852 43.6681 60.068 43.7161 60.308C43.7641 60.524 43.8361 60.728 43.9321 60.92C44.0281 61.112 44.1361 61.28 44.2561 61.424C44.4001 61.568 44.5561 61.64 44.7241 61.64V62H40.1881V61.64C40.3561 61.64 40.5001 61.58 40.6201 61.46C40.7641 61.316 40.8841 61.148 40.9801 60.956C41.0761 60.74 41.1481 60.524 41.1961 60.308C41.2441 60.068 41.2681 59.852 41.2681 59.66V49.112C41.2681 48.944 41.2441 48.752 41.1961 48.536C41.1481 48.32 41.0761 48.116 40.9801 47.924C40.8841 47.732 40.7641 47.576 40.6201 47.456C40.5001 47.312 40.3561 47.24 40.1881 47.24V46.88H44.7241V47.24C44.5321 47.24 44.3641 47.312 44.2201 47.456C44.1001 47.576 43.9921 47.732 43.8961 47.924C43.8241 48.116 43.7641 48.32 43.7161 48.536C43.6681 48.752 43.6441 48.944 43.6441 49.112V53.468H51.8521V49.112C51.8521 48.944 51.8281 48.752 51.7801 48.536C51.7321 48.32 51.6601 48.116 51.5641 47.924C51.4921 47.732 51.3841 47.576 51.2401 47.456C51.1201 47.312 50.9641 47.24 50.7721 47.24V46.88H55.3081V47.24C55.1161 47.24 54.9481 47.312 54.8041 47.456C54.6841 47.576 54.5761 47.732 54.4801 47.924C54.3841 48.116 54.3121 48.32 54.2641 48.536C54.2401 48.752 54.2281 48.944 54.2281 49.112V59.66C54.2281 59.852 54.2521 60.068 54.3001 60.308C54.3481 60.524 54.4201 60.728 54.5161 60.92C54.6121 61.112 54.7201 61.28 54.8401 61.424C54.9841 61.568 55.1401 61.64 55.3081 61.64V62H50.7721V61.64C50.9401 61.64 51.0841 61.58 51.2041 61.46C51.3481 61.316 51.4681 61.148 51.5641 60.956C51.6601 60.74 51.7321 60.524 51.7801 60.308C51.8281 60.068 51.8521 59.852 51.8521 59.66V54.656H43.6441V59.66ZM72.0681 60.704C71.8761 60.704 71.6961 60.752 71.5281 60.848C71.3601 60.92 71.1681 61.016 70.9521 61.136C70.5441 61.376 70.0041 61.628 69.3321 61.892C68.6601 62.132 67.8201 62.252 66.8121 62.252C65.5881 62.252 64.4601 62.06 63.4281 61.676C62.4201 61.268 61.5441 60.716 60.8001 60.02C60.0561 59.3 59.4801 58.472 59.0721 57.536C58.6641 56.576 58.4601 55.544 58.4601 54.44C58.4601 53.408 58.6401 52.424 59.0001 51.488C59.3841 50.552 59.9241 49.724 60.6201 49.004C61.3161 48.284 62.1681 47.708 63.1761 47.276C64.2081 46.844 65.3721 46.628 66.6681 46.628C67.5561 46.628 68.2761 46.736 68.8281 46.952C69.3801 47.144 69.8481 47.336 70.2321 47.528C70.4481 47.648 70.6521 47.744 70.8441 47.816C71.0601 47.888 71.2761 47.924 71.4921 47.924V50.66H71.1321C71.0121 50.204 70.7961 49.808 70.4841 49.472C70.1721 49.112 69.8121 48.812 69.4041 48.572C68.9961 48.332 68.5521 48.152 68.0721 48.032C67.5921 47.912 67.1241 47.852 66.6681 47.852C65.6841 47.852 64.8201 48.032 64.0761 48.392C63.3321 48.728 62.7201 49.184 62.2401 49.76C61.7601 50.312 61.4001 50.948 61.1601 51.668C60.9201 52.388 60.8001 53.132 60.8001 53.9C60.8001 54.788 60.9321 55.664 61.1961 56.528C61.4841 57.368 61.8801 58.124 62.3841 58.796C62.9121 59.468 63.5481 60.008 64.2921 60.416C65.0601 60.824 65.9241 61.028 66.8841 61.028C67.5561 61.028 68.1801 60.932 68.7561 60.74C69.3321 60.548 69.8241 60.296 70.2321 59.984C70.6641 59.672 71.0001 59.336 71.2401 58.976C71.5041 58.592 71.6601 58.232 71.7081 57.896H72.0681V60.704ZM85.3718 59.192C85.5158 59.456 85.7078 59.732 85.9478 60.02C86.1878 60.308 86.4518 60.572 86.7398 60.812C87.0518 61.052 87.3638 61.256 87.6758 61.424C87.9878 61.568 88.2878 61.64 88.5758 61.64V62H87.2078C86.1038 62 85.2518 61.772 84.6518 61.316C84.0518 60.86 83.5838 60.32 83.2478 59.696L81.5558 56.492C81.2918 55.988 80.8478 55.556 80.2238 55.196C79.5998 54.812 78.9398 54.62 78.2438 54.62V59.732C78.2438 59.924 78.2558 60.128 78.2798 60.344C78.3278 60.56 78.3998 60.764 78.4958 60.956C78.5918 61.148 78.7118 61.316 78.8558 61.46C78.9998 61.58 79.1678 61.64 79.3598 61.64V62H74.7158V61.64C74.8838 61.64 75.0398 61.58 75.1838 61.46C75.3518 61.316 75.4838 61.148 75.5798 60.956C75.6758 60.764 75.7478 60.56 75.7958 60.344C75.8438 60.128 75.8678 59.924 75.8678 59.732V49.148C75.8678 48.98 75.8438 48.788 75.7958 48.572C75.7478 48.332 75.6758 48.116 75.5798 47.924C75.5078 47.732 75.3998 47.576 75.2558 47.456C75.1118 47.312 74.9318 47.24 74.7158 47.24V46.88H79.3238V47.24C79.1558 47.24 78.9998 47.312 78.8558 47.456C78.7358 47.576 78.6278 47.732 78.5318 47.924C78.4358 48.116 78.3638 48.332 78.3158 48.572C78.2678 48.788 78.2438 48.98 78.2438 49.148V52.856C79.2758 51.944 80.2958 51.068 81.3038 50.228C82.3118 49.364 83.3318 48.476 84.3638 47.564C84.3638 47.54 84.3758 47.516 84.3998 47.492C84.4238 47.468 84.4358 47.444 84.4358 47.42C84.4358 47.3 84.3758 47.24 84.2558 47.24V46.88H87.3878V47.24C87.2678 47.24 87.1238 47.276 86.9558 47.348C86.7878 47.42 86.6198 47.504 86.4518 47.6C86.2598 47.696 86.0678 47.816 85.8758 47.96C84.7958 48.872 83.7158 49.808 82.6358 50.768C81.5558 51.704 80.4758 52.628 79.3958 53.54C80.4278 53.54 81.2678 53.732 81.9158 54.116C82.5878 54.5 83.1518 55.112 83.6078 55.952L85.3718 59.192ZM96.7894 62.252C95.5894 62.252 94.5094 62.06 93.5494 61.676C92.5894 61.268 91.7614 60.728 91.0654 60.056C90.3934 59.36 89.8654 58.544 89.4814 57.608C89.1214 56.672 88.9414 55.652 88.9414 54.548C88.9414 53.372 89.1454 52.304 89.5534 51.344C89.9614 50.36 90.5254 49.52 91.2454 48.824C91.9654 48.128 92.8174 47.588 93.8014 47.204C94.7854 46.82 95.8534 46.628 97.0054 46.628C98.1574 46.628 99.2134 46.82 100.173 47.204C101.133 47.564 101.961 48.08 102.657 48.752C103.353 49.424 103.893 50.228 104.277 51.164C104.661 52.076 104.853 53.084 104.853 54.188C104.853 55.22 104.673 56.228 104.313 57.212C103.977 58.172 103.461 59.024 102.765 59.768C102.093 60.512 101.253 61.112 100.245 61.568C99.2614 62.024 98.1094 62.252 96.7894 62.252ZM96.5734 47.816C95.7094 47.864 94.9414 48.08 94.2694 48.464C93.6214 48.824 93.0694 49.304 92.6134 49.904C92.1814 50.48 91.8454 51.14 91.6054 51.884C91.3894 52.628 91.2814 53.384 91.2814 54.152C91.2814 55.04 91.4134 55.904 91.6774 56.744C91.9654 57.56 92.3614 58.292 92.8654 58.94C93.3934 59.588 94.0174 60.104 94.7374 60.488C95.4574 60.872 96.2614 61.064 97.1494 61.064C98.0374 61.064 98.8174 60.872 99.4894 60.488C100.185 60.104 100.761 59.612 101.217 59.012C101.673 58.388 102.009 57.692 102.225 56.924C102.465 56.156 102.585 55.388 102.585 54.62C102.585 53.828 102.465 53.036 102.225 52.244C101.985 51.428 101.613 50.696 101.109 50.048C100.605 49.376 99.9694 48.836 99.2014 48.428C98.4574 48.02 97.5814 47.816 96.5734 47.816ZM122.509 59.66C122.509 59.852 122.533 60.068 122.581 60.308C122.653 60.524 122.737 60.728 122.833 60.92C122.929 61.112 123.049 61.28 123.193 61.424C123.361 61.568 123.517 61.64 123.661 61.64V62H119.053V61.64C119.221 61.64 119.377 61.58 119.521 61.46C119.665 61.316 119.785 61.148 119.881 60.956C119.977 60.74 120.049 60.524 120.097 60.308C120.145 60.068 120.169 59.852 120.169 59.66V51.02L111.601 59.408V59.66C111.601 59.852 111.625 60.068 111.673 60.308C111.721 60.524 111.793 60.728 111.889 60.92C111.985 61.112 112.093 61.28 112.213 61.424C112.357 61.568 112.513 61.64 112.681 61.64V62H108.109V61.64C108.277 61.64 108.433 61.58 108.577 61.46C108.721 61.316 108.841 61.148 108.937 60.956C109.033 60.74 109.105 60.524 109.153 60.308C109.201 60.068 109.225 59.852 109.225 59.66V49.112C109.225 48.944 109.201 48.752 109.153 48.536C109.105 48.32 109.033 48.116 108.937 47.924C108.841 47.732 108.721 47.576 108.577 47.456C108.433 47.312 108.277 47.24 108.109 47.24V46.88H112.681V47.24C112.489 47.24 112.321 47.312 112.177 47.456C112.057 47.576 111.949 47.732 111.853 47.924C111.781 48.116 111.721 48.32 111.673 48.536C111.625 48.752 111.601 48.944 111.601 49.112V57.716L120.169 49.328V49.112C120.169 48.944 120.145 48.752 120.097 48.536C120.049 48.32 119.977 48.116 119.881 47.924C119.785 47.732 119.665 47.576 119.521 47.456C119.377 47.312 119.221 47.24 119.053 47.24V46.88H123.661V47.24C123.469 47.24 123.289 47.312 123.121 47.456C122.977 47.576 122.857 47.732 122.761 47.924C122.689 48.116 122.629 48.32 122.581 48.536C122.533 48.752 122.509 48.944 122.509 49.112V59.66ZM119.737 42.02C119.737 42.404 119.641 42.824 119.449 43.28C119.257 43.712 118.981 44.12 118.621 44.504C118.261 44.864 117.829 45.164 117.325 45.404C116.845 45.644 116.305 45.764 115.705 45.764C115.153 45.764 114.625 45.656 114.121 45.44C113.641 45.2 113.221 44.9 112.861 44.54C112.501 44.18 112.213 43.784 111.997 43.352C111.781 42.896 111.673 42.452 111.673 42.02H111.889C111.913 42.164 111.985 42.368 112.105 42.632C112.249 42.872 112.465 43.124 112.753 43.388C113.041 43.652 113.413 43.88 113.869 44.072C114.349 44.264 114.949 44.36 115.669 44.36C116.413 44.36 117.025 44.264 117.505 44.072C117.985 43.88 118.369 43.652 118.657 43.388C118.945 43.124 119.149 42.872 119.269 42.632C119.389 42.368 119.473 42.164 119.521 42.02H119.737ZM144.039 62.252C142.839 62.252 141.759 62.06 140.799 61.676C139.839 61.268 139.011 60.728 138.315 60.056C137.643 59.36 137.115 58.544 136.731 57.608C136.371 56.672 136.191 55.652 136.191 54.548C136.191 53.372 136.395 52.304 136.803 51.344C137.211 50.36 137.775 49.52 138.495 48.824C139.215 48.128 140.067 47.588 141.051 47.204C142.035 46.82 143.103 46.628 144.255 46.628C145.407 46.628 146.463 46.82 147.423 47.204C148.383 47.564 149.211 48.08 149.907 48.752C150.603 49.424 151.143 50.228 151.527 51.164C151.911 52.076 152.103 53.084 152.103 54.188C152.103 55.22 151.923 56.228 151.563 57.212C151.227 58.172 150.711 59.024 150.015 59.768C149.343 60.512 148.503 61.112 147.495 61.568C146.511 62.024 145.359 62.252 144.039 62.252ZM143.823 47.816C142.959 47.864 142.191 48.08 141.519 48.464C140.871 48.824 140.319 49.304 139.863 49.904C139.431 50.48 139.095 51.14 138.855 51.884C138.639 52.628 138.531 53.384 138.531 54.152C138.531 55.04 138.663 55.904 138.927 56.744C139.215 57.56 139.611 58.292 140.115 58.94C140.643 59.588 141.267 60.104 141.987 60.488C142.707 60.872 143.511 61.064 144.399 61.064C145.287 61.064 146.067 60.872 146.739 60.488C147.435 60.104 148.011 59.612 148.467 59.012C148.923 58.388 149.259 57.692 149.475 56.924C149.715 56.156 149.835 55.388 149.835 54.62C149.835 53.828 149.715 53.036 149.475 52.244C149.235 51.428 148.863 50.696 148.359 50.048C147.855 49.376 147.219 48.836 146.451 48.428C145.707 48.02 144.831 47.816 143.823 47.816ZM171.343 60.812V65.24H170.983C170.935 64.952 170.851 64.616 170.731 64.232C170.611 63.872 170.443 63.524 170.227 63.188C170.011 62.852 169.747 62.564 169.435 62.324C169.147 62.108 168.811 62 168.427 62H156.979C156.595 62 156.247 62.108 155.935 62.324C155.623 62.564 155.347 62.852 155.107 63.188C154.891 63.524 154.711 63.872 154.567 64.232C154.447 64.616 154.375 64.952 154.351 65.24H153.991V60.812H155.359C155.503 60.812 155.635 60.752 155.755 60.632C155.899 60.512 156.031 60.368 156.151 60.2C156.295 60.032 156.427 59.852 156.547 59.66C156.667 59.444 156.775 59.252 156.871 59.084C157.231 58.268 157.663 57.296 158.167 56.168C158.695 55.04 159.223 53.876 159.751 52.676C160.303 51.476 160.831 50.312 161.335 49.184C161.839 48.032 162.271 47.048 162.631 46.232L168.715 59.516C168.907 59.924 169.087 60.248 169.255 60.488C169.423 60.704 169.651 60.812 169.939 60.812H171.343ZM157.339 60.812H166.699L162.019 50.552L157.339 60.812ZM175.444 54.728C175.54 55.568 175.744 56.372 176.056 57.14C176.368 57.884 176.776 58.544 177.28 59.12C177.808 59.696 178.444 60.164 179.188 60.524C179.932 60.86 180.796 61.028 181.78 61.028C182.308 61.028 182.86 60.956 183.436 60.812C184.036 60.644 184.588 60.416 185.092 60.128C185.596 59.84 186.04 59.492 186.424 59.084C186.832 58.652 187.108 58.172 187.252 57.644H187.576V60.344C187.432 60.344 187.264 60.392 187.072 60.488C186.904 60.584 186.7 60.704 186.46 60.848C185.98 61.136 185.332 61.448 184.516 61.784C183.7 62.096 182.62 62.252 181.276 62.252C180.196 62.252 179.164 62.096 178.18 61.784C177.22 61.472 176.368 60.992 175.624 60.344C174.88 59.696 174.28 58.868 173.824 57.86C173.392 56.852 173.176 55.652 173.176 54.26C173.176 53.372 173.32 52.472 173.608 51.56C173.92 50.648 174.376 49.832 174.976 49.112C175.6 48.368 176.392 47.768 177.352 47.312C178.312 46.856 179.464 46.628 180.808 46.628C182.008 46.628 183.052 46.832 183.94 47.24C184.852 47.648 185.596 48.212 186.172 48.932C186.772 49.652 187.216 50.504 187.504 51.488C187.792 52.472 187.936 53.552 187.936 54.728H175.444ZM180.664 47.816C179.824 47.816 179.092 47.984 178.468 48.32C177.868 48.656 177.352 49.088 176.92 49.616C176.488 50.144 176.152 50.744 175.912 51.416C175.672 52.088 175.516 52.76 175.444 53.432H185.704C185.68 52.736 185.548 52.052 185.308 51.38C185.092 50.708 184.78 50.108 184.372 49.58C183.964 49.052 183.448 48.632 182.824 48.32C182.2 47.984 181.48 47.816 180.664 47.816ZM208.216 59.156C208.36 59.444 208.54 59.732 208.756 60.02C208.996 60.308 209.248 60.572 209.512 60.812C209.776 61.028 210.052 61.22 210.34 61.388C210.652 61.532 210.94 61.616 211.204 61.64V62H209.944C208.936 62 208.144 61.796 207.568 61.388C207.016 60.956 206.572 60.416 206.236 59.768L204.508 56.384C204.292 55.832 203.908 55.352 203.356 54.944C202.804 54.536 202.228 54.308 201.628 54.26V59.624C201.628 59.792 201.652 59.996 201.7 60.236C201.748 60.452 201.82 60.668 201.916 60.884C202.036 61.076 202.168 61.244 202.312 61.388C202.456 61.532 202.624 61.616 202.816 61.64V62H198.208V61.64C198.4 61.616 198.568 61.532 198.712 61.388C198.856 61.244 198.976 61.076 199.072 60.884C199.192 60.668 199.276 60.452 199.324 60.236C199.372 60.02 199.396 59.816 199.396 59.624V54.26C198.772 54.308 198.196 54.536 197.668 54.944C197.164 55.352 196.78 55.832 196.516 56.384L194.824 59.768C194.512 60.392 194.056 60.92 193.456 61.352C192.88 61.784 192.088 62 191.08 62H189.82V61.64C190.084 61.616 190.36 61.532 190.648 61.388C190.936 61.22 191.212 61.028 191.476 60.812C191.764 60.572 192.016 60.308 192.232 60.02C192.472 59.732 192.664 59.444 192.808 59.156L194.5 55.664C194.788 55.112 195.268 54.632 195.94 54.224C196.636 53.792 197.428 53.552 198.316 53.504C197.404 52.64 196.432 51.716 195.4 50.732C194.368 49.748 193.384 48.824 192.448 47.96C192.376 47.912 192.184 47.792 191.872 47.6C191.584 47.384 191.32 47.264 191.08 47.24V46.88H193.852V47.276C193.78 47.324 193.744 47.36 193.744 47.384C193.744 47.504 193.78 47.612 193.852 47.708L199.396 52.856V49.148C199.396 48.812 199.288 48.428 199.072 47.996C198.88 47.54 198.592 47.288 198.208 47.24V46.88H202.816V47.24C202.624 47.264 202.456 47.348 202.312 47.492C202.168 47.612 202.048 47.768 201.952 47.96C201.856 48.152 201.772 48.356 201.7 48.572C201.652 48.788 201.628 48.98 201.628 49.148V52.856L207.208 47.636C207.256 47.588 207.28 47.504 207.28 47.384C207.28 47.36 207.244 47.324 207.172 47.276V46.88H209.944V47.24C209.824 47.24 209.68 47.276 209.512 47.348C209.368 47.42 209.224 47.504 209.08 47.6C208.912 47.696 208.744 47.816 208.576 47.96L202.708 53.504C203.668 53.528 204.472 53.744 205.12 54.152C205.768 54.536 206.236 55.04 206.524 55.664L208.216 59.156ZM229.527 60.812V65.24H229.167C229.119 64.952 229.035 64.616 228.915 64.232C228.795 63.872 228.627 63.524 228.411 63.188C228.195 62.852 227.931 62.564 227.619 62.324C227.331 62.108 226.995 62 226.611 62H215.163C214.779 62 214.431 62.108 214.119 62.324C213.807 62.564 213.531 62.852 213.291 63.188C213.075 63.524 212.895 63.872 212.751 64.232C212.631 64.616 212.559 64.952 212.535 65.24H212.175V60.812H213.543C213.687 60.812 213.819 60.752 213.939 60.632C214.083 60.512 214.215 60.368 214.335 60.2C214.479 60.032 214.611 59.852 214.731 59.66C214.851 59.444 214.959 59.252 215.055 59.084C215.415 58.268 215.847 57.296 216.351 56.168C216.879 55.04 217.407 53.876 217.935 52.676C218.487 51.476 219.015 50.312 219.519 49.184C220.023 48.032 220.455 47.048 220.815 46.232L226.899 59.516C227.091 59.924 227.271 60.248 227.439 60.488C227.607 60.704 227.835 60.812 228.123 60.812H229.527ZM215.523 60.812H224.883L220.203 50.552L215.523 60.812ZM246.551 62V61.64C246.719 61.64 246.875 61.58 247.019 61.46C247.163 61.316 247.283 61.148 247.379 60.956C247.499 60.74 247.583 60.524 247.631 60.308C247.679 60.068 247.703 59.852 247.703 59.66V49.112C247.703 48.944 247.679 48.752 247.631 48.536C247.583 48.32 247.499 48.116 247.379 47.924C247.283 47.732 247.163 47.576 247.019 47.456C246.875 47.312 246.719 47.24 246.551 47.24V46.88H251.231V47.24C250.871 47.24 250.583 47.468 250.367 47.924C250.151 48.356 250.043 48.752 250.043 49.112V59.66C250.043 59.852 250.067 60.068 250.115 60.308C250.163 60.524 250.235 60.728 250.331 60.92C250.451 61.112 250.583 61.28 250.727 61.424C250.871 61.568 251.039 61.64 251.231 61.64V62H246.551ZM238.055 53.432C240.263 53.432 241.895 53.84 242.951 54.656C244.031 55.472 244.571 56.48 244.571 57.68C244.571 58.28 244.427 58.844 244.139 59.372C243.875 59.9 243.467 60.356 242.915 60.74C242.363 61.124 241.667 61.436 240.827 61.676C239.987 61.892 238.991 62 237.839 62H231.719V61.64C231.887 61.64 232.043 61.58 232.187 61.46C232.331 61.316 232.451 61.148 232.547 60.956C232.667 60.74 232.751 60.524 232.799 60.308C232.847 60.068 232.871 59.852 232.871 59.66V49.112C232.871 48.944 232.847 48.752 232.799 48.536C232.751 48.32 232.667 48.116 232.547 47.924C232.451 47.732 232.331 47.576 232.187 47.456C232.043 47.312 231.887 47.24 231.719 47.24V46.88H236.399V47.24C236.039 47.24 235.751 47.468 235.535 47.924C235.319 48.356 235.211 48.752 235.211 49.112V53.432H238.055ZM237.767 60.812C239.351 60.812 240.491 60.56 241.187 60.056C241.907 59.528 242.267 58.88 242.267 58.112C242.267 57.68 242.171 57.26 241.979 56.852C241.787 56.42 241.487 56.048 241.079 55.736C240.695 55.4 240.215 55.136 239.639 54.944C239.063 54.728 238.403 54.62 237.659 54.62H235.211V60.812H237.767ZM276.264 37.88C278.136 37.88 279.816 38.216 281.304 38.888C282.792 39.536 284.052 40.424 285.084 41.552C286.14 42.656 286.944 43.952 287.496 45.44C288.072 46.904 288.36 48.44 288.36 50.048C288.36 51.848 288.024 53.504 287.352 55.016C286.704 56.528 285.804 57.824 284.652 58.904C283.5 59.984 282.156 60.836 280.62 61.46C279.108 62.06 277.488 62.36 275.76 62.36C273.912 62.36 272.244 62.024 270.756 61.352C269.292 60.68 268.044 59.792 267.012 58.688C266.004 57.584 265.224 56.312 264.672 54.872C264.12 53.432 263.844 51.932 263.844 50.372C263.844 48.836 264.12 47.324 264.672 45.836C265.224 44.324 266.028 42.98 267.084 41.804C268.164 40.628 269.472 39.68 271.008 38.96C272.544 38.24 274.296 37.88 276.264 37.88ZM276.228 61.1C277.836 61.028 279.24 60.668 280.44 60.02C281.664 59.348 282.684 58.508 283.5 57.5C284.316 56.468 284.916 55.34 285.3 54.116C285.708 52.892 285.912 51.68 285.912 50.48C285.912 49.16 285.672 47.828 285.192 46.484C284.712 45.14 284.028 43.928 283.14 42.848C282.252 41.744 281.184 40.856 279.936 40.184C278.712 39.488 277.332 39.14 275.796 39.14C274.308 39.14 272.976 39.476 271.8 40.148C270.624 40.796 269.616 41.636 268.776 42.668C267.96 43.7 267.336 44.852 266.904 46.124C266.472 47.396 266.256 48.644 266.256 49.868C266.256 51.188 266.508 52.52 267.012 53.864C267.516 55.184 268.212 56.384 269.1 57.464C269.988 58.544 271.032 59.42 272.232 60.092C273.456 60.764 274.788 61.1 276.228 61.1ZM299.222 46.628C300.518 46.628 301.634 46.844 302.57 47.276C303.53 47.708 304.322 48.284 304.946 49.004C305.57 49.724 306.038 50.552 306.35 51.488C306.662 52.4 306.818 53.336 306.818 54.296C306.818 55.28 306.662 56.252 306.35 57.212C306.038 58.148 305.558 59 304.91 59.768C304.286 60.512 303.506 61.112 302.57 61.568C301.634 62.024 300.554 62.252 299.33 62.252C298.418 62.252 297.59 62.072 296.846 61.712C296.102 61.328 295.514 60.872 295.082 60.344V62H291.554V61.64C291.722 61.64 291.878 61.568 292.022 61.424C292.166 61.28 292.286 61.112 292.382 60.92C292.502 60.728 292.586 60.524 292.634 60.308C292.682 60.068 292.706 59.852 292.706 59.66V41.3C292.706 40.892 292.646 40.508 292.526 40.148C292.406 39.788 292.058 39.596 291.482 39.572V39.212L295.082 38.096V48.392C295.634 47.84 296.282 47.408 297.026 47.096C297.794 46.784 298.526 46.628 299.222 46.628ZM299.582 61.028C300.446 60.98 301.19 60.776 301.814 60.416C302.438 60.032 302.954 59.552 303.362 58.976C303.794 58.4 304.106 57.752 304.298 57.032C304.514 56.288 304.622 55.532 304.622 54.764C304.622 53.9 304.502 53.06 304.262 52.244C304.022 51.428 303.662 50.696 303.182 50.048C302.726 49.4 302.15 48.884 301.454 48.5C300.758 48.092 299.966 47.888 299.078 47.888C298.574 47.888 298.082 48.008 297.602 48.248C297.122 48.464 296.69 48.764 296.306 49.148C295.946 49.508 295.646 49.952 295.406 50.48C295.19 50.984 295.082 51.524 295.082 52.1V56.564C295.082 57.26 295.214 57.884 295.478 58.436C295.742 58.988 296.09 59.456 296.522 59.84C296.954 60.224 297.434 60.524 297.962 60.74C298.514 60.932 299.054 61.028 299.582 61.028ZM310.155 62V61.64C310.347 61.64 310.515 61.568 310.659 61.424C310.803 61.28 310.923 61.112 311.019 60.92C311.139 60.728 311.223 60.524 311.271 60.308C311.319 60.068 311.343 59.852 311.343 59.66V41.228C311.343 40.82 311.283 40.436 311.163 40.076C311.043 39.716 310.683 39.524 310.083 39.5V39.14L313.719 38.024V59.66C313.719 59.852 313.743 60.068 313.791 60.308C313.839 60.524 313.911 60.728 314.007 60.92C314.127 61.112 314.247 61.28 314.367 61.424C314.511 61.568 314.679 61.64 314.871 61.64V62H310.155ZM318.847 62V61.64C319.039 61.64 319.207 61.568 319.351 61.424C319.495 61.28 319.615 61.112 319.711 60.92C319.807 60.728 319.879 60.524 319.927 60.308C319.975 60.068 319.999 59.852 319.999 59.66V49.688C319.999 49.28 319.939 48.896 319.819 48.536C319.699 48.152 319.351 47.948 318.775 47.924V47.6L322.375 46.448V59.66C322.375 59.852 322.399 60.068 322.447 60.308C322.495 60.524 322.567 60.728 322.663 60.92C322.759 61.112 322.879 61.28 323.023 61.424C323.167 61.568 323.335 61.64 323.527 61.64V62H318.847ZM319.027 42.992C319.027 42.512 319.183 42.104 319.495 41.768C319.831 41.432 320.239 41.264 320.719 41.264C321.199 41.264 321.607 41.432 321.943 41.768C322.279 42.104 322.447 42.512 322.447 42.992C322.447 43.472 322.279 43.868 321.943 44.18C321.607 44.492 321.199 44.648 320.719 44.648C320.239 44.648 319.831 44.492 319.495 44.18C319.183 43.868 319.027 43.472 319.027 42.992ZM337.71 69.2C337.902 69.2 338.07 69.128 338.214 68.984C338.358 68.84 338.478 68.672 338.574 68.48C338.67 68.288 338.742 68.072 338.79 67.832C338.838 67.616 338.862 67.412 338.862 67.22V60.416C338.43 60.968 337.902 61.412 337.278 61.748C336.654 62.084 335.802 62.252 334.722 62.252C333.45 62.252 332.334 62.036 331.374 61.604C330.438 61.148 329.658 60.548 329.034 59.804C328.41 59.06 327.942 58.22 327.63 57.284C327.342 56.348 327.198 55.388 327.198 54.404C327.198 53.444 327.366 52.496 327.702 51.56C328.062 50.624 328.554 49.796 329.178 49.076C329.826 48.332 330.606 47.744 331.518 47.312C332.454 46.856 333.498 46.628 334.65 46.628C335.49 46.628 336.318 46.832 337.134 47.24C337.974 47.624 338.634 48.08 339.114 48.608L341.238 46.34V67.22C341.238 67.412 341.262 67.616 341.31 67.832C341.358 68.072 341.43 68.288 341.526 68.48C341.622 68.672 341.742 68.84 341.886 68.984C342.03 69.128 342.198 69.2 342.39 69.2V69.56H337.71V69.2ZM334.938 61.028C335.442 61.028 335.922 60.932 336.378 60.74C336.858 60.524 337.278 60.248 337.638 59.912C338.022 59.552 338.322 59.144 338.538 58.688C338.754 58.208 338.862 57.692 338.862 57.14V52.244C338.862 51.548 338.73 50.936 338.466 50.408C338.202 49.856 337.866 49.4 337.458 49.04C337.05 48.656 336.582 48.368 336.054 48.176C335.526 47.984 334.998 47.888 334.47 47.888C333.678 47.888 332.97 48.068 332.346 48.428C331.746 48.764 331.23 49.22 330.798 49.796C330.39 50.372 330.078 51.02 329.862 51.74C329.646 52.46 329.538 53.192 329.538 53.936C329.538 54.776 329.658 55.616 329.898 56.456C330.138 57.296 330.486 58.052 330.942 58.724C331.422 59.372 331.986 59.912 332.634 60.344C333.306 60.776 334.074 61.004 334.938 61.028ZM360.126 59.66C360.126 59.828 360.15 60.032 360.198 60.272C360.246 60.488 360.306 60.704 360.378 60.92C360.474 61.112 360.594 61.28 360.738 61.424C360.882 61.568 361.05 61.64 361.242 61.64V62H357.75V60.02C357.39 60.548 356.862 61.064 356.166 61.568C355.47 62.072 354.57 62.324 353.466 62.324C352.074 62.324 350.97 62.084 350.154 61.604C349.338 61.124 348.714 60.512 348.282 59.768C347.85 59.024 347.574 58.22 347.454 57.356C347.334 56.468 347.274 55.64 347.274 54.872V49.724C347.274 49.508 347.262 49.304 347.238 49.112C347.238 48.896 347.19 48.704 347.094 48.536C347.022 48.368 346.902 48.236 346.734 48.14C346.566 48.02 346.326 47.96 346.014 47.96V47.636L349.65 46.484V55.664C349.65 57.488 350.046 58.832 350.838 59.696C351.63 60.56 352.602 60.992 353.754 60.992C354.378 60.992 354.93 60.86 355.41 60.596C355.914 60.308 356.334 59.972 356.67 59.588C357.03 59.204 357.294 58.808 357.462 58.4C357.654 57.992 357.75 57.656 357.75 57.392V49.724C357.75 49.508 357.738 49.304 357.714 49.112C357.714 48.896 357.666 48.704 357.57 48.536C357.498 48.368 357.378 48.236 357.21 48.14C357.042 48.02 356.802 47.96 356.49 47.96V47.636L360.126 46.484V59.66ZM366.729 54.728C366.825 55.568 367.029 56.372 367.341 57.14C367.653 57.884 368.061 58.544 368.565 59.12C369.093 59.696 369.729 60.164 370.473 60.524C371.217 60.86 372.081 61.028 373.065 61.028C373.593 61.028 374.145 60.956 374.721 60.812C375.321 60.644 375.873 60.416 376.377 60.128C376.881 59.84 377.325 59.492 377.709 59.084C378.117 58.652 378.393 58.172 378.537 57.644H378.861V60.344C378.717 60.344 378.549 60.392 378.357 60.488C378.189 60.584 377.985 60.704 377.745 60.848C377.265 61.136 376.617 61.448 375.801 61.784C374.985 62.096 373.905 62.252 372.561 62.252C371.481 62.252 370.449 62.096 369.465 61.784C368.505 61.472 367.653 60.992 366.909 60.344C366.165 59.696 365.565 58.868 365.109 57.86C364.677 56.852 364.461 55.652 364.461 54.26C364.461 53.372 364.605 52.472 364.893 51.56C365.205 50.648 365.661 49.832 366.261 49.112C366.885 48.368 367.677 47.768 368.637 47.312C369.597 46.856 370.749 46.628 372.093 46.628C373.293 46.628 374.337 46.832 375.225 47.24C376.137 47.648 376.881 48.212 377.457 48.932C378.057 49.652 378.501 50.504 378.789 51.488C379.077 52.472 379.221 53.552 379.221 54.728H366.729ZM371.949 47.816C371.109 47.816 370.377 47.984 369.753 48.32C369.153 48.656 368.637 49.088 368.205 49.616C367.773 50.144 367.437 50.744 367.197 51.416C366.957 52.088 366.801 52.76 366.729 53.432H376.989C376.965 52.736 376.833 52.052 376.593 51.38C376.377 50.708 376.065 50.108 375.657 49.58C375.249 49.052 374.733 48.632 374.109 48.32C373.485 47.984 372.765 47.816 371.949 47.816ZM404.245 39.176C402.469 39.176 400.921 39.5 399.601 40.148C398.305 40.772 397.225 41.6 396.361 42.632C395.497 43.64 394.849 44.78 394.417 46.052C394.009 47.324 393.805 48.584 393.805 49.832C393.805 51.248 394.081 52.64 394.633 54.008C395.185 55.352 395.941 56.552 396.901 57.608C397.885 58.64 399.025 59.48 400.321 60.128C401.617 60.752 403.021 61.064 404.533 61.064C404.965 61.064 405.469 61.016 406.045 60.92C406.645 60.824 407.233 60.644 407.809 60.38C408.385 60.092 408.913 59.696 409.393 59.192C409.897 58.688 410.281 58.028 410.545 57.212H410.905V61.208C410.545 61.208 410.161 61.256 409.753 61.352C409.369 61.448 408.937 61.556 408.457 61.676C407.833 61.844 407.137 62 406.369 62.144C405.625 62.288 404.833 62.36 403.993 62.36C401.905 62.36 400.069 62 398.485 61.28C396.901 60.56 395.581 59.624 394.525 58.472C393.469 57.32 392.677 56.024 392.149 54.584C391.621 53.12 391.357 51.644 391.357 50.156C391.357 48.668 391.621 47.192 392.149 45.728C392.677 44.264 393.481 42.956 394.561 41.804C395.641 40.628 396.997 39.68 398.629 38.96C400.261 38.24 402.181 37.88 404.389 37.88C405.181 37.88 405.889 37.952 406.513 38.096C407.161 38.24 407.737 38.384 408.241 38.528C408.601 38.648 408.925 38.744 409.213 38.816C409.525 38.864 409.825 38.888 410.113 38.888V42.884H409.753C409.609 42.14 409.345 41.528 408.961 41.048C408.577 40.544 408.121 40.16 407.593 39.896C407.089 39.632 406.537 39.452 405.937 39.356C405.361 39.236 404.797 39.176 404.245 39.176ZM422.787 49.508C422.499 49.028 422.199 48.728 421.887 48.608C421.575 48.488 421.215 48.428 420.807 48.428C420.543 48.428 420.255 48.488 419.943 48.608C419.655 48.728 419.367 48.884 419.079 49.076C418.791 49.268 418.503 49.484 418.215 49.724C417.951 49.94 417.723 50.144 417.531 50.336V59.696C417.531 59.888 417.555 60.092 417.603 60.308C417.651 60.524 417.723 60.74 417.819 60.956C417.939 61.148 418.059 61.316 418.179 61.46C418.323 61.58 418.491 61.64 418.683 61.64V62H414.003V61.64C414.171 61.64 414.327 61.58 414.471 61.46C414.615 61.316 414.735 61.148 414.831 60.956C414.951 60.74 415.035 60.524 415.083 60.308C415.131 60.092 415.155 59.888 415.155 59.696V49.652C415.155 49.316 415.047 48.98 414.831 48.644C414.615 48.308 414.303 48.092 413.895 47.996V47.708L417.531 46.628V48.788C417.747 48.524 417.975 48.272 418.215 48.032C418.455 47.768 418.719 47.54 419.007 47.348C419.319 47.132 419.655 46.964 420.015 46.844C420.375 46.7 420.795 46.628 421.275 46.628C421.611 46.628 422.043 46.7 422.571 46.844C423.099 46.988 423.531 47.144 423.867 47.312L422.787 49.508ZM428.112 54.728C428.208 55.568 428.412 56.372 428.724 57.14C429.036 57.884 429.444 58.544 429.948 59.12C430.476 59.696 431.112 60.164 431.856 60.524C432.6 60.86 433.464 61.028 434.448 61.028C434.976 61.028 435.528 60.956 436.104 60.812C436.704 60.644 437.256 60.416 437.76 60.128C438.264 59.84 438.708 59.492 439.092 59.084C439.5 58.652 439.776 58.172 439.92 57.644H440.244V60.344C440.1 60.344 439.932 60.392 439.74 60.488C439.572 60.584 439.368 60.704 439.128 60.848C438.648 61.136 438 61.448 437.184 61.784C436.368 62.096 435.288 62.252 433.944 62.252C432.864 62.252 431.832 62.096 430.848 61.784C429.888 61.472 429.036 60.992 428.292 60.344C427.548 59.696 426.948 58.868 426.492 57.86C426.06 56.852 425.844 55.652 425.844 54.26C425.844 53.372 425.988 52.472 426.276 51.56C426.588 50.648 427.044 49.832 427.644 49.112C428.268 48.368 429.06 47.768 430.02 47.312C430.98 46.856 432.132 46.628 433.476 46.628C434.676 46.628 435.72 46.832 436.608 47.24C437.52 47.648 438.264 48.212 438.84 48.932C439.44 49.652 439.884 50.504 440.172 51.488C440.46 52.472 440.604 53.552 440.604 54.728H428.112ZM433.332 47.816C432.492 47.816 431.76 47.984 431.136 48.32C430.536 48.656 430.02 49.088 429.588 49.616C429.156 50.144 428.82 50.744 428.58 51.416C428.34 52.088 428.184 52.76 428.112 53.432H438.372C438.348 52.736 438.216 52.052 437.976 51.38C437.76 50.708 437.448 50.108 437.04 49.58C436.632 49.052 436.116 48.632 435.492 48.32C434.868 47.984 434.148 47.816 433.332 47.816ZM452.124 62V60.164L451.944 60.344C451.344 60.944 450.648 61.412 449.856 61.748C449.088 62.084 448.152 62.252 447.048 62.252C446.208 62.252 445.488 62.156 444.888 61.964C444.288 61.772 443.796 61.508 443.412 61.172C443.028 60.812 442.74 60.404 442.548 59.948C442.38 59.492 442.296 59.012 442.296 58.508C442.296 57.692 442.512 56.972 442.944 56.348C443.4 55.724 444.048 55.172 444.888 54.692C445.728 54.212 446.748 53.78 447.948 53.396C449.172 52.988 450.564 52.592 452.124 52.208C452.076 51.272 451.884 50.516 451.548 49.94C451.212 49.364 450.816 48.92 450.36 48.608C449.904 48.272 449.424 48.056 448.92 47.96C448.416 47.84 447.984 47.78 447.624 47.78C447 47.78 446.448 47.876 445.968 48.068C445.512 48.26 445.104 48.512 444.744 48.824C444.408 49.112 444.12 49.436 443.88 49.796C443.64 50.132 443.448 50.456 443.304 50.768H442.98V48.14C443.172 48.116 443.352 48.056 443.52 47.96C443.688 47.864 443.892 47.768 444.132 47.672C444.492 47.528 444.984 47.324 445.608 47.06C446.232 46.772 447.108 46.628 448.236 46.628C449.556 46.628 450.624 46.796 451.44 47.132C452.256 47.468 452.88 47.912 453.312 48.464C453.768 49.016 454.068 49.652 454.212 50.372C454.356 51.068 454.428 51.788 454.428 52.532V59.66C454.428 60.14 454.536 60.596 454.752 61.028C454.968 61.436 455.256 61.64 455.616 61.64V62H452.124ZM452.124 58.58V53.432L451.764 53.504C451.188 53.648 450.48 53.84 449.64 54.08C448.824 54.32 448.044 54.632 447.3 55.016C446.556 55.4 445.92 55.856 445.392 56.384C444.864 56.912 444.6 57.524 444.6 58.22C444.6 58.988 444.912 59.624 445.536 60.128C446.16 60.632 446.976 60.884 447.984 60.884C448.776 60.884 449.472 60.716 450.072 60.38C450.672 60.02 451.224 59.564 451.728 59.012L452.124 58.58ZM462.601 48.104V56.78C462.601 57.404 462.613 57.968 462.637 58.472C462.661 58.976 462.721 59.396 462.817 59.732C462.913 60.068 463.057 60.332 463.249 60.524C463.441 60.692 463.705 60.776 464.041 60.776C464.545 60.776 465.013 60.536 465.445 60.056C465.901 59.576 466.189 59 466.309 58.328H466.633V60.956C466.417 60.956 466.237 61.028 466.093 61.172C465.901 61.34 465.625 61.52 465.265 61.712C464.929 61.904 464.413 62 463.717 62C462.853 62 462.181 61.832 461.701 61.496C461.221 61.16 460.873 60.716 460.657 60.164C460.441 59.612 460.309 59 460.261 58.328C460.237 57.656 460.225 56.972 460.225 56.276V48.104H458.209V46.88H460.225V43.676C460.225 43.268 460.165 42.896 460.045 42.56C459.949 42.2 459.601 42.008 459.001 41.984V41.624L462.601 40.472V46.88H466.633V48.104H462.601ZM469.843 62V61.64C470.035 61.64 470.203 61.568 470.347 61.424C470.491 61.28 470.611 61.112 470.707 60.92C470.803 60.728 470.875 60.524 470.923 60.308C470.971 60.068 470.995 59.852 470.995 59.66V49.688C470.995 49.28 470.935 48.896 470.815 48.536C470.695 48.152 470.347 47.948 469.771 47.924V47.6L473.371 46.448V59.66C473.371 59.852 473.395 60.068 473.443 60.308C473.491 60.524 473.563 60.728 473.659 60.92C473.755 61.112 473.875 61.28 474.019 61.424C474.163 61.568 474.331 61.64 474.523 61.64V62H469.843ZM470.023 42.992C470.023 42.512 470.179 42.104 470.491 41.768C470.827 41.432 471.235 41.264 471.715 41.264C472.195 41.264 472.603 41.432 472.939 41.768C473.275 42.104 473.443 42.512 473.443 42.992C473.443 43.472 473.275 43.868 472.939 44.18C472.603 44.492 472.195 44.648 471.715 44.648C471.235 44.648 470.827 44.492 470.491 44.18C470.179 43.868 470.023 43.472 470.023 42.992ZM485.934 62.252C484.734 62.252 483.654 62.06 482.694 61.676C481.734 61.268 480.906 60.728 480.21 60.056C479.538 59.36 479.01 58.544 478.626 57.608C478.266 56.672 478.086 55.652 478.086 54.548C478.086 53.372 478.29 52.304 478.698 51.344C479.106 50.36 479.67 49.52 480.39 48.824C481.11 48.128 481.962 47.588 482.946 47.204C483.93 46.82 484.998 46.628 486.15 46.628C487.302 46.628 488.358 46.82 489.318 47.204C490.278 47.564 491.106 48.08 491.802 48.752C492.498 49.424 493.038 50.228 493.422 51.164C493.806 52.076 493.998 53.084 493.998 54.188C493.998 55.22 493.818 56.228 493.458 57.212C493.122 58.172 492.606 59.024 491.91 59.768C491.238 60.512 490.398 61.112 489.39 61.568C488.406 62.024 487.254 62.252 485.934 62.252ZM485.718 47.816C484.854 47.864 484.086 48.08 483.414 48.464C482.766 48.824 482.214 49.304 481.758 49.904C481.326 50.48 480.99 51.14 480.75 51.884C480.534 52.628 480.426 53.384 480.426 54.152C480.426 55.04 480.558 55.904 480.822 56.744C481.11 57.56 481.506 58.292 482.01 58.94C482.538 59.588 483.162 60.104 483.882 60.488C484.602 60.872 485.406 61.064 486.294 61.064C487.182 61.064 487.962 60.872 488.634 60.488C489.33 60.104 489.906 59.612 490.362 59.012C490.818 58.388 491.154 57.692 491.37 56.924C491.61 56.156 491.73 55.388 491.73 54.62C491.73 53.828 491.61 53.036 491.37 52.244C491.13 51.428 490.758 50.696 490.254 50.048C489.75 49.376 489.114 48.836 488.346 48.428C487.602 48.02 486.726 47.816 485.718 47.816ZM511.69 59.66C511.69 59.852 511.714 60.068 511.762 60.308C511.81 60.524 511.882 60.728 511.978 60.92C512.098 61.112 512.218 61.28 512.338 61.424C512.482 61.568 512.65 61.64 512.842 61.64V62H508.198V61.64C508.366 61.64 508.522 61.568 508.666 61.424C508.81 61.28 508.93 61.112 509.026 60.92C509.146 60.728 509.23 60.524 509.278 60.308C509.326 60.068 509.35 59.852 509.35 59.66V52.964C509.35 52.1 509.23 51.344 508.99 50.696C508.75 50.048 508.426 49.508 508.018 49.076C507.61 48.644 507.142 48.332 506.614 48.14C506.11 47.924 505.594 47.816 505.066 47.816C504.538 47.816 504.01 47.924 503.482 48.14C502.978 48.356 502.522 48.644 502.114 49.004C501.73 49.34 501.406 49.748 501.142 50.228C500.902 50.684 500.782 51.164 500.782 51.668V59.66C500.782 59.852 500.806 60.068 500.854 60.308C500.902 60.524 500.974 60.728 501.07 60.92C501.19 61.112 501.31 61.28 501.43 61.424C501.574 61.568 501.742 61.64 501.934 61.64V62H497.254V61.64C497.422 61.64 497.578 61.568 497.722 61.424C497.866 61.28 497.986 61.112 498.082 60.92C498.202 60.728 498.286 60.524 498.334 60.308C498.382 60.068 498.406 59.852 498.406 59.66V49.724C498.406 49.316 498.346 48.932 498.226 48.572C498.106 48.188 497.758 47.984 497.182 47.96V47.636L500.782 46.484V48.464C500.95 48.272 501.166 48.068 501.43 47.852C501.694 47.612 502.006 47.396 502.366 47.204C502.75 46.988 503.182 46.82 503.662 46.7C504.166 46.556 504.754 46.484 505.426 46.484C506.554 46.484 507.514 46.676 508.306 47.06C509.098 47.444 509.746 47.948 510.25 48.572C510.754 49.172 511.114 49.844 511.33 50.588C511.57 51.308 511.69 52.016 511.69 52.712V59.66ZM528.078 57.896C528.078 58.52 527.922 59.096 527.61 59.624C527.298 60.152 526.866 60.62 526.314 61.028C525.786 61.412 525.162 61.724 524.442 61.964C523.722 62.18 522.942 62.288 522.102 62.288C521.07 62.288 520.23 62.156 519.582 61.892C518.934 61.604 518.382 61.316 517.926 61.028C517.614 60.836 517.326 60.68 517.062 60.56C516.798 60.416 516.51 60.344 516.198 60.344V57.608H516.558C516.63 57.944 516.834 58.316 517.17 58.724C517.53 59.108 517.95 59.468 518.43 59.804C518.934 60.14 519.474 60.428 520.05 60.668C520.65 60.884 521.25 60.992 521.85 60.992C522.282 60.992 522.726 60.944 523.182 60.848C523.638 60.752 524.046 60.596 524.406 60.38C524.79 60.164 525.102 59.9 525.342 59.588C525.606 59.252 525.738 58.856 525.738 58.4C525.738 57.944 525.606 57.548 525.342 57.212C525.078 56.876 524.742 56.588 524.334 56.348C523.926 56.084 523.458 55.856 522.93 55.664C522.402 55.472 521.874 55.292 521.346 55.124C520.722 54.932 520.086 54.716 519.438 54.476C518.814 54.236 518.25 53.96 517.746 53.648C517.242 53.312 516.834 52.916 516.522 52.46C516.21 51.98 516.054 51.416 516.054 50.768C516.054 50.216 516.15 49.688 516.342 49.184C516.558 48.68 516.894 48.248 517.35 47.888C517.83 47.504 518.442 47.204 519.186 46.988C519.93 46.748 520.83 46.628 521.886 46.628C522.822 46.628 523.542 46.712 524.046 46.88C524.574 47.024 525.006 47.18 525.342 47.348C525.558 47.468 525.774 47.564 525.99 47.636C526.206 47.684 526.446 47.708 526.71 47.708V50.228H526.422C525.99 49.436 525.33 48.836 524.442 48.428C523.554 48.02 522.642 47.816 521.706 47.816C521.106 47.816 520.59 47.9 520.158 48.068C519.726 48.212 519.366 48.404 519.078 48.644C518.814 48.86 518.61 49.112 518.466 49.4C518.346 49.688 518.286 49.976 518.286 50.264C518.286 50.672 518.394 51.02 518.61 51.308C518.85 51.596 519.162 51.848 519.546 52.064C519.954 52.28 520.398 52.484 520.878 52.676C521.382 52.868 521.91 53.048 522.462 53.216C523.134 53.432 523.806 53.672 524.478 53.936C525.15 54.176 525.75 54.476 526.278 54.836C526.806 55.196 527.238 55.628 527.574 56.132C527.91 56.612 528.078 57.2 528.078 57.896Z" fill="white"/>
</svg>
